<svg width="36" height="36" viewBox="0 0 36 36" fill="none" xmlns="http://www.w3.org/2000/svg">
<rect width="36" height="36" rx="18" fill="#E5E7EB"/>
<path d="M25.0009 25.9502V24.0502C25.0009 23.0424 24.6005 22.0759 23.8879 21.3632C23.1753 20.6506 22.2087 20.2502 21.2009 20.2502H13.6009C12.5931 20.2502 11.6265 20.6506 10.9139 21.3632C10.2013 22.0759 9.8009 23.0424 9.8009 24.0502V25.9502" stroke="#111827" stroke-width="2.4" stroke-linecap="round" stroke-linejoin="round"/>
<path d="M17.401 16.4502C19.4997 16.4502 21.201 14.7489 21.201 12.6502C21.201 10.5515 19.4997 8.85022 17.401 8.85022C15.3023 8.85022 13.601 10.5515 13.601 12.6502C13.601 14.7489 15.3023 16.4502 17.401 16.4502Z" stroke="#111827" stroke-width="2.4" stroke-linecap="round" stroke-linejoin="round"/>
</svg>
