<svg width="23" height="24" viewBox="0 0 23 24" fill="none" xmlns="http://www.w3.org/2000/svg">
<path d="M21.7827 15.1086L20.2935 13.8827C20.5575 12.6414 20.5575 11.3585 20.2935 10.1172L21.7827 8.89124C21.9545 8.75051 22.0705 8.55324 22.1101 8.33474C22.1497 8.11625 22.1102 7.8908 21.9986 7.69879L20.47 5.05115C20.3594 4.8585 20.1839 4.71151 19.9749 4.63653C19.7658 4.56154 19.5369 4.56345 19.3292 4.64193L17.5216 5.31913C16.58 4.46838 15.4691 3.82634 14.2619 3.43513L13.9448 1.53336C13.9089 1.31419 13.7961 1.11497 13.6266 0.971412C13.4572 0.827852 13.2421 0.749338 13.02 0.749942H9.96274C9.74066 0.749346 9.52562 0.827857 9.35616 0.971406C9.18671 1.11495 9.07391 1.31416 9.03799 1.53332L8.72102 3.43513C7.5138 3.82633 6.40294 4.46837 5.46133 5.31913L3.6536 4.64183C3.44585 4.56341 3.21696 4.56153 3.00794 4.63652C2.79893 4.71152 2.62345 4.85849 2.51294 5.0511L0.984302 7.69893C0.872815 7.89096 0.833334 8.11641 0.872929 8.33489C0.912525 8.55338 1.02861 8.75064 1.2004 8.89133L2.68947 10.1172C2.42547 11.3585 2.42547 12.6414 2.68947 13.8827L1.20025 15.1086C1.0285 15.2494 0.912443 15.4466 0.872874 15.6651C0.833305 15.8836 0.872805 16.1091 0.984302 16.3011L2.51299 18.9487C2.62351 19.1414 2.79901 19.2884 3.00806 19.3633C3.2171 19.4383 3.44602 19.4364 3.65379 19.358L5.46138 18.6808C6.40299 19.5315 7.51385 20.1736 8.72107 20.5648L9.03804 22.4665C9.07395 22.6857 9.18673 22.8849 9.35618 23.0284C9.52563 23.172 9.74066 23.2505 9.96274 23.2499H13.02C13.2421 23.2505 13.4571 23.172 13.6266 23.0285C13.7961 22.8849 13.9089 22.6857 13.9448 22.4666L14.2618 20.5648C15.469 20.1735 16.5799 19.5315 17.5215 18.6808L19.3292 19.3581C19.5369 19.4365 19.7658 19.4383 19.9748 19.3633C20.1838 19.2884 20.3593 19.1414 20.4698 18.9488L21.9984 16.301C22.1099 16.109 22.1494 15.8836 22.1099 15.6651C22.0704 15.4467 21.9544 15.2494 21.7827 15.1086ZM19.4092 17.7861L17.1541 16.9413L16.8126 17.2851C15.873 18.232 14.6979 18.9112 13.4083 19.2525L12.9395 19.3761L12.5437 21.7499H10.4395L10.0437 19.3761L9.57499 19.2525C8.28541 18.9112 7.11023 18.232 6.17069 17.2851L5.82921 16.9413L3.57372 17.7861L2.5218 15.9638L4.37941 14.4345L4.25285 13.9671C3.90479 12.6787 3.90479 11.3211 4.25285 10.0328L4.37941 9.5654L2.5218 8.03615L3.57396 6.21374L5.82907 7.05861L6.17055 6.71483C7.11009 5.76785 8.28526 5.08866 9.57485 4.74735L10.0436 4.62379L10.4393 2.24994H12.5437L12.9394 4.62379L13.4081 4.74735C14.6977 5.08866 15.8729 5.76785 16.8124 6.71483L17.1539 7.05861L19.409 6.21374L20.4612 8.0361L18.6036 9.5654L18.7302 10.0328C19.0782 11.3211 19.0782 12.6787 18.7302 13.9671L18.6036 14.4345L20.4612 15.9637L19.4092 17.7861Z" fill="black"/>
</svg>
