<svg width="24" height="18" viewBox="0 0 24 18" fill="none" xmlns="http://www.w3.org/2000/svg">
<path d="M21.75 0.375H2.25C1.85231 0.375447 1.47104 0.533625 1.18983 0.814833C0.908625 1.09604 0.750447 1.47731 0.75 1.875V16.125C0.750447 16.5227 0.908625 16.904 1.18983 17.1852C1.47104 17.4664 1.85231 17.6246 2.25 17.625H21.75C22.1477 17.6246 22.529 17.4664 22.8102 17.1852C23.0914 16.904 23.2496 16.5227 23.25 16.125V1.875C23.2496 1.47731 23.0914 1.09604 22.8102 0.814833C22.529 0.533625 22.1477 0.375447 21.75 0.375ZM21.75 16.125H2.25V1.875H21.75L21.7509 16.125H21.75Z" fill="black"/>
</svg>
