<svg width="22" height="24" viewBox="0 0 18 24" fill="none" xmlns="http://www.w3.org/2000/svg">
<path d="M16.2938 16.1089L12.8802 13.8901L14.1671 11.5307C14.4671 10.9797 14.6245 10.3624 14.625 9.73505V6C14.625 4.60761 14.0719 3.27226 13.0873 2.28769C12.1028 1.30312 10.7674 0.75 9.37501 0.75C7.98262 0.75 6.64726 1.30312 5.6627 2.28769C4.67813 3.27226 4.12501 4.60761 4.12501 6V9.73505C4.12547 10.3624 4.28288 10.9797 4.58288 11.5307L5.86984 13.8901L2.45626 16.1089C1.93163 16.4485 1.50056 16.9143 1.20248 17.4635C0.904396 18.0128 0.748827 18.6281 0.750007 19.2531V23.25H18V19.2531C18.0012 18.6281 17.8456 18.0128 17.5475 17.4636C17.2494 16.9143 16.8184 16.4485 16.2938 16.1089ZM16.5 21.75H2.25001V19.2531C2.24931 18.8781 2.34265 18.5089 2.52151 18.1793C2.70037 17.8498 2.95902 17.5703 3.2738 17.3665L7.85162 14.391L5.89974 10.8125C5.71974 10.4819 5.6253 10.1115 5.62501 9.73505V6C5.62501 5.00544 6.02009 4.05161 6.72336 3.34835C7.42662 2.64509 8.38044 2.25 9.37501 2.25C10.3696 2.25 11.3234 2.64509 12.0267 3.34835C12.7299 4.05161 13.125 5.00544 13.125 6V9.73505C13.1247 10.1115 13.0303 10.4819 12.8503 10.8125L10.8984 14.391L15.4764 17.3665C15.7911 17.5703 16.0497 17.8498 16.2286 18.1794C16.4074 18.5089 16.5007 18.8781 16.5 19.2531V21.75Z" fill="black"/>
</svg>
