<?xml version="1.0" standalone="no"?>
<svg version="1.1" id="Layer_1_99_" xmlns="http://www.w3.org/2000/svg" xmlns:xlink="http://www.w3.org/1999/xlink" x="0px" y="0px" viewBox="0 0 595.276 595.276" enable-background="new 0 0 595.276 595.276" xml:space="preserve">
<path id="color_x5F_6" fill-rule="evenodd" clip-rule="evenodd" fill="#ebfff5" d="M424.229,343.57l5.109,6.644
	c-0.049,0.505-0.994,10.328-1.473,15.317c-0.109,1.134-0.526,2.208-1.196,3.111l-0.733-6.707c-0.001-0.006-0.002-0.013-0.002-0.019
	l-1.788-17.405c0.001-0.002,0.081-0.924,0.082-0.942H424.229L424.229,343.57z M548.883,319.145h-68.871
	c-7.323,0-13.25-5.927-13.25-13.25v-35.412c0.001-0.295-0.129-0.575-0.355-0.765l-18.451-15.51l17.456,6.556
	c0.112,0.043,0.231,0.064,0.351,0.064c0.548,0,0.999-0.45,0.999-0.999v-0.001v-1.114c0-7.291,5.875-13.197,13.25-13.25h68.871
	c7.323,0,13.25,5.926,13.25,13.25v47.181C562.133,313.218,556.207,319.144,548.883,319.145z M505.152,257.132
	c-1.943,0-3.629,1.378-4.018,3.281c-1.723,8.416-7.347,35.875-9.275,45.287c0,0-0.001,0.001-0.002,0.002
	c-0.219,1.075,0.056,2.195,0.751,3.046c0.695,0.853,1.74,1.348,2.839,1.348h8.025c1.734,0,3.24-1.229,3.588-2.928
	c1.432-6.99,5.958-29.086,7.02-34.274c0.038-0.182,0.181-0.301,0.368-0.301c0.186,0,0.332,0.119,0.369,0.301
	c1.063,5.189,5.587,27.284,7.018,34.274c0.348,1.699,1.856,2.928,3.59,2.928h8.025c1.1,0,2.141-0.495,2.837-1.348
	c0.695-0.851,0.972-1.972,0.751-3.048c-1.928-9.412-7.55-36.87-9.274-45.287v-0.002c-0.391-1.903-2.079-3.279-4.021-3.279H505.152z
	 M304.498,273.731c0.309,0.018,0.607,0.131,0.854,0.328c5.723,4.566,20.576,16.422,21.468,17.133l-7.659,14.832
	c-0.947-0.608-6.435-4.133-10.999-7.063c-2.321-1.491-3.143-4.471-1.915-6.941c1.748-3.514,3.748-7.538,3.748-7.538
	c0.187-0.375,0.119-0.828-0.169-1.132c0,0-2.855-3.013-5.073-5.355c-0.08-0.144-0.196-0.266-0.336-0.355
	c-0.504-0.532-0.772-0.816-1.184-1.25c-0.494-0.522-0.555-1.301-0.15-1.894l0.002-0.002v-0.002c0.03-0.044,0.052-0.075,0.064-0.092
	c0.003-0.005,0.007-0.011,0.01-0.016c0.239-0.348,0.607-0.577,1.024-0.639C304.29,273.729,304.395,273.725,304.498,273.731
	L304.498,273.731L304.498,273.731z M410.868,260.919h-16.574v-9.155c0-0.548-0.451-0.999-0.999-0.999h-8.148
	c-3.508-0.001-6.328-2.824-6.328-6.33v-27.508c1.415,0.499,2.853,0.756,4.153,0.841c1.381,0.089,2.366-0.131,3.318-0.364
	c2.36,6.477,6.23,10.56,6.23,10.56c0.317,0.326,0.817,0.397,1.212,0.171c0,0,0.654-0.375,1.662-0.95
	c1.484-0.846,3.322-0.727,4.684,0.303c1.361,1.03,1.977,2.763,1.568,4.421c-0.131,0.529-0.258,1.042-0.377,1.525h0.002
	c-0.47,1.91-2.172,3.242-4.139,3.242h-1.649c-0.547,0-0.999,0.451-0.999,0.999c0,0.193,0.056,0.381,0.16,0.542
	c3.514,5.431,6.094,7.968,7.922,9.181c0.914,0.606,1.648,0.879,2.204,0.983c0.279,0.052,0.51,0.062,0.692,0.051
	c0.055-0.003,0.063-0.011,0.116-0.02h5.289L410.868,260.919L410.868,260.919z M388.017,240.626c-0.034-0.001-0.067,0-0.1,0.002
	c-0.4,0.026-0.747,0.29-0.88,0.667c0,0-0.264,0.717-0.977,1.387c-0.714,0.67-1.762,1.27-3.672,0.933
	c-0.066-0.014-0.133-0.021-0.2-0.021c-0.548,0-0.999,0.451-0.999,0.999c0,0.492,0.364,0.915,0.849,0.988
	c2.486,0.44,4.32-0.439,5.388-1.443s1.486-2.155,1.486-2.155c0.044-0.115,0.066-0.236,0.066-0.358
	C388.98,241.091,388.551,240.645,388.017,240.626L388.017,240.626z M472.609,177.465c-0.234,0-0.458,0.082-0.638,0.23
	l-22.792,18.909l9.675-17.661c0.081-0.147,0.123-0.312,0.123-0.479c0-0.547-0.45-0.999-0.998-0.999h-17.395
	c-7.355,0-13.307-5.951-13.307-13.306v-47.368c0-7.321,5.899-13.253,13.307-13.306h68.927c7.355,0,13.307,5.952,13.307,13.306
	v47.368c0,7.354-5.952,13.306-13.307,13.306L472.609,177.465L472.609,177.465z M355.23,155.605
	c-0.547,0.001-0.998,0.451-0.998,0.999c0,0.168,0.042,0.333,0.123,0.48l9.675,17.66l-18.668-15.486
	c-0.062-0.068-0.132-0.126-0.209-0.174l-3.915-3.248c-0.18-0.149-0.406-0.231-0.638-0.231h-36.902
	c-7.354,0-13.306-5.952-13.306-13.306V94.931c0-7.355,5.952-13.306,13.306-13.306h68.928c7.353,0,13.306,5.951,13.306,13.306v47.368
	c0,7.354-5.953,13.306-13.306,13.306H355.23L355.23,155.605z M458.031,165.583v0.002c0.88,0.88,2.072,1.373,3.315,1.373h27.533
	c1.243,0,2.437-0.494,3.316-1.374c0.88-0.88,1.373-2.073,1.373-3.317v-26.302c1.129,0.848,2.451,1.841,3.972,2.983
	c0.649,0.487,1.471,0.69,2.274,0.561c0.802-0.129,1.519-0.577,1.985-1.244c1.558-2.233,4.27-6.12,5.75-8.242
	c0.878-1.258,0.653-3-0.514-3.995c-2.025-1.729-5.903-5.041-9.036-7.716c-3.266-2.788-7.421-4.319-11.715-4.319h-19.606h-2.74
	c-4.294,0-8.446,1.531-11.712,4.319c-3.133,2.675-7.011,5.987-9.036,7.716c-1.169,0.995-1.391,2.737-0.513,3.995
	c1.48,2.122,4.191,6.009,5.749,8.242c0.465,0.667,1.182,1.116,1.984,1.244c0.804,0.129,1.625-0.074,2.275-0.561
	c1.521-1.144,2.844-2.137,3.971-2.985v26.304c0,1.242,0.494,2.437,1.373,3.316H458.031z M325.85,124.906l5.615,6.613
	c3.651,4.299,9.009,6.779,14.65,6.779h14.437c2.006,0,3.806-1.264,4.483-3.154c0.677-1.89,0.092-4.008-1.457-5.283
	c-3.906-3.214-7.494-6.164-7.822-6.435c-0.224-10.532-7.739-19.287-17.697-21.406c-0.101-0.039-0.208-0.06-0.316-0.065
	c-1.409-0.279-2.865-0.426-4.355-0.426l0,0c-12.347,0-22.379,10.031-22.379,22.379c0,0.547,0.45,0.999,0.999,0.999L325.85,124.906z"></path>
<path id="color_x5F_5" fill-rule="evenodd" clip-rule="evenodd" fill="#f9ece6" d="M438.592,512.914h-19.985
	c-0.753,0-1.466-0.332-1.953-0.907c-0.487-0.576-0.695-1.333-0.57-2.077l2.21-13.126h20.428c0.167,0.911,1.468,8.058,2.386,13.093
	c0.137,0.746-0.066,1.514-0.552,2.097C440.07,512.578,439.351,512.914,438.592,512.914z M387.115,512.914h-35.768
	c-0.612,0-1.2-0.243-1.633-0.676c-0.431-0.434-0.675-1.02-0.675-1.631v-0.258c0-0.782,0.395-1.508,1.05-1.935
	c4.525-2.944,17.488-11.378,17.845-11.611h21.492v13.803c0,0.612-0.244,1.198-0.677,1.631
	C388.315,512.672,387.727,512.914,387.115,512.914L387.115,512.914z M273.164,423.395h-61.378c-6.385,0-11.542-5.157-11.542-11.543
	v-0.004c0-6.386,5.157-11.541,11.542-11.541h61.378c6.386,0,11.543,5.155,11.543,11.541v0.004
	C284.707,418.238,279.55,423.395,273.164,423.395z M405.552,246.414c-0.071,0-0.143,0.008-0.213,0.024
	c-0.017,0.001-0.079,0.001-0.201-0.022c-0.247-0.046-0.731-0.195-1.467-0.683c-1.285-0.852-3.459-3.113-6.238-7.11
	c2.744-0.136,5.116-2.02,5.779-4.71c0-0.001,0-0.002,0-0.002c0.119-0.483,0.244-0.994,0.375-1.522c0-0.001,0-0.001,0-0.002
	c0.598-2.428-0.31-4.985-2.304-6.492c-1.996-1.507-4.704-1.682-6.877-0.442c-0.557,0.318-0.63,0.359-0.921,0.524
	c-0.681-0.745-3.668-4.121-5.606-9.921c-0.136-0.407-0.518-0.682-0.947-0.682c-0.133,0-0.264,0.026-0.386,0.077
	c-0.469,0.197-1.862,0.428-3.445,0.326c-1.516-0.098-3.248-0.474-4.797-1.229c-0.055-0.031-0.112-0.056-0.172-0.076
	c-0.012-0.006-0.025-0.009-0.037-0.016c-1.599-0.824-2.969-2.051-3.8-3.892c-0.83-1.841-1.135-4.348-0.396-7.799
	c0.532-2.484,3.099-7.334,6.014-9.744l0,0c1.087,1.384,2.495,2.432,4.204,3.008c2.114,0.713,4.543,0.943,7.068,0.972
	c5.048,0.056,10.534-0.707,14.324-0.54c6.411,0.281,9.555,2.493,11.148,5.122c1.594,2.63,1.616,5.869,1.181,8.178
	c-0.097,0.518,0.233,1.03,0.745,1.155c0,0,1.911,0.464,3.726,2.321c1.815,1.858,3.525,5.053,2.807,10.884
	c-1.419,11.535-9.547,19.01-13.625,22.295L405.552,246.414L405.552,246.414z M360.552,136.3h-14.437
	c-5.057,0-9.855-2.219-13.127-6.073c-2.228-2.625-3.568-4.203-4.518-5.322l0,0h25.938c0.262,0.215,3.955,3.251,7.898,6.496
	c0.904,0.743,1.242,1.966,0.847,3.066c0,0.001,0,0.001,0,0.002C362.76,135.571,361.722,136.3,360.552,136.3L360.552,136.3z"></path>
<path id="color_x5F_4" fill-rule="evenodd" clip-rule="evenodd" fill="#61db98" d="M513.606,512.915h-13.162l18.69-22.274
	c0.156-0.182,0.242-0.412,0.242-0.652c0-0.547-0.45-0.999-0.999-0.999c-0.006,0-0.012,0-0.017,0
	c-0.295,0.005-0.571,0.14-0.757,0.368l-18.023,21.478c1.405-3.861,2.413-8.131,2.872-12.659c0.02-0.198,0.03-0.401,0.049-0.599
	c0.062-0.693,0.125-1.386,0.162-2.089c0.05-0.939,0.078-1.886,0.078-2.842c0-0.424-0.012-0.845-0.022-1.264
	c7.867-7.769,17.44-11.898,24.474-11.84l0,0c1.414,7.867-1.94,19.902-10.228,29.779
	C515.894,510.598,514.763,511.787,513.606,512.915z M336.134,512.915H148.815c-1.988,0-3.891-0.789-5.298-2.195
	c-1.406-1.405-2.196-3.312-2.196-5.3v-38.846h202.308v38.846c0,1.988-0.788,3.894-2.194,5.3
	C340.029,512.126,338.123,512.914,336.134,512.915z M487.521,512.915h-7.062c-2.218-5.028-3.736-11.019-4.085-17.454
	c-0.049-0.93-0.076-1.869-0.076-2.815c0-13.887,5.582-26.14,12.222-31.605l0,0c6.639,5.465,12.223,17.717,12.223,31.605
	c0,0.946-0.027,1.885-0.076,2.815c-0.05,0.912-0.122,1.816-0.217,2.708c-0.001,0.006-0.001,0.013-0.002,0.019
	c-0.577,5.399-1.966,10.417-3.868,14.727h-7.061v-37.088c0-0.005,0-0.009,0-0.014c0-0.548-0.451-0.999-0.999-0.999
	c-0.005,0-0.01,0-0.014,0c-0.548,0.008-0.993,0.464-0.985,1.013V512.915z M476.044,512.914h-13.161
	c-1.157-1.128-2.288-2.314-3.36-3.591v-0.002c-8.285-9.876-11.64-21.909-10.228-29.777l0,0c7.196-0.059,17.049,4.265,25.013,12.376
	c-0.003,0.242-0.008,0.483-0.008,0.726c0,0.957,0.028,1.905,0.078,2.844c0.031,0.584,0.085,1.16,0.133,1.737
	c0.028,0.329,0.048,0.662,0.082,0.989c0.505,4.965,1.659,9.634,3.287,13.776l-18.994-22.635c-0.193-0.235-0.482-0.371-0.786-0.367
	c-0.543,0.008-0.986,0.456-0.986,0.999c0,0.24,0.086,0.47,0.242,0.652L476.044,512.914z M143.006,512.914h-5.948
	c-1.988,0-3.894-0.788-5.301-2.194c-1.405-1.406-2.194-3.312-2.194-5.3V139.521c0-1.988,0.789-3.892,2.194-5.299
	c1.406-1.406,3.313-2.196,5.301-2.196l0,0h5.95c-0.314,0.244-0.619,0.5-0.903,0.784c-1.781,1.78-2.782,4.194-2.782,6.711v29.142
	c-0.018,0.108-0.018,0.219,0,0.327v52.157c-0.018,0.108-0.018,0.217,0,0.325v243.937c-0.018,0.108-0.018,0.218,0,0.326v39.687
	c0,2.516,1.001,4.932,2.782,6.712C142.388,512.416,142.692,512.671,143.006,512.914L143.006,512.914z M242.475,472.269
	c-9.495,0-17.215,7.72-17.215,17.216c0,9.495,7.72,17.213,17.215,17.213c9.495,0,17.215-7.718,17.215-17.213
	C259.69,479.988,251.971,472.269,242.475,472.269z M423.833,361.02h-50.351v-16.461c0.004-0.041,1.297-14.841,2.786-31.852
	c5.486-11.505,12.278-25.747,17.405-36.499c1.578-3.31,1.348-7.202-0.609-10.303c-0.75-1.189-1.718-2.195-2.829-2.988l0,0h32.413
	c1.705,0,3.33,0.714,4.483,1.972c1.152,1.257,1.721,2.939,1.572,4.637c-0.606,6.933-1.23,14.057-2.216,25.326
	c0,0.001,0,0.002,0,0.002c-0.017,0.083-0.025,0.167-0.021,0.25c-1.772,20.251-3.693,42.221-3.978,45.477
	c-0.049,0.149-0.063,0.307-0.041,0.462c-0.018,0.214-0.296,3.388-0.296,3.388c-0.006,0.063-0.006,0.127,0,0.19L423.833,361.02
	L423.833,361.02z M428.865,263.86c1.214,0.687,2.23,1.712,2.883,3.006c4.787,9.482,15.957,31.611,21.826,43.24
	c2.097,4.156,1.503,9.156-1.509,12.706c-7.811,9.202-20.698,24.386-21.658,25.517l-5.923-7.7c0.075-0.852,0.761-8.682,1.015-11.583
	l11.873-13.876c0.255-0.298,0.312-0.72,0.144-1.075l-9.03-19.196c0.98-11.195,1.601-18.301,2.204-25.199
	C430.875,267.614,430.23,265.549,428.865,263.86L428.865,263.86z M384.094,262.916c2.957,0.024,5.699,1.548,7.28,4.053
	c1.592,2.524,1.78,5.687,0.495,8.381c-5.132,10.762-11.934,25.022-17.422,36.532c-0.043,0.068-0.077,0.14-0.102,0.215
	c-0.929,1.949-2.144,4.498-2.959,6.205c-1.327,2.786-3.708,4.928-6.619,5.956c-2.911,1.028-6.111,0.855-8.893-0.48
	c-4.164-1.997-6.015-2.885-10.678-5.123c-0.089-0.061-0.186-0.108-0.289-0.138c-10.466-5.021-23.259-11.158-24.003-11.515
	l7.64-14.795l15.547,6.664c0.092,0.058,0.193,0.101,0.299,0.127l13.772,5.903c0.494,0.212,1.077-0.012,1.301-0.501
	c0,0,11.429-24.96,16.681-36.427c1.412-3.082,4.486-5.056,7.877-5.056L384.094,262.916L384.094,262.916z M343.629,167.832H141.321
	v-28.311c0-1.988,0.79-3.892,2.196-5.299c1.386-1.386,3.257-2.174,5.298-2.196h139.579v10.273c0,8.435,6.868,15.303,15.303,15.303
	h36.542l3.39,2.814V167.832L343.629,167.832z M465.881,115.991c0.523,4.706,4.389,8.433,9.231,8.433
	c4.841,0,8.706-3.726,9.231-8.433h1.941c3.819,0,7.513,1.361,10.417,3.841c3.133,2.675,7.011,5.987,9.036,7.715
	c0.001,0,0.001,0,0.002,0c0.398,0.34,0.471,0.903,0.172,1.332c-1.48,2.122-4.193,6.009-5.751,8.242c0,0.001,0,0.002,0,0.002
	c-0.154,0.222-0.395,0.371-0.663,0.413c-0.268,0.043-0.539-0.024-0.757-0.187c-2.133-1.602-5.571-4.185-5.571-4.185
	c-0.173-0.129-0.383-0.199-0.599-0.199c-0.547,0-0.999,0.45-0.999,0.999v28.302c0,0.716-0.282,1.399-0.788,1.904
	c0,0.001-0.001,0.002-0.002,0.002c-0.504,0.506-1.188,0.788-1.902,0.789h-27.533c-0.715,0-1.397-0.283-1.903-0.789
	c0,0-0.001-0.001-0.002-0.002c-0.505-0.504-0.788-1.188-0.788-1.904v-28.302v-0.001c0-0.548-0.45-1-0.999-1
	c-0.217,0-0.427,0.071-0.6,0.201c0,0-3.437,2.583-5.569,4.185c-0.218,0.163-0.491,0.23-0.759,0.187
	c-0.269-0.043-0.507-0.192-0.661-0.413c0,0,0-0.001,0-0.002c-1.558-2.232-4.269-6.12-5.749-8.242
	c-0.301-0.429-0.229-0.993,0.17-1.332c2.024-1.728,5.904-5.04,9.038-7.715c2.904-2.48,6.596-3.841,10.414-3.841L465.881,115.991
	L465.881,115.991z M266.896,150.721h-48.843c-0.005,0-0.01,0-0.014,0c-0.548,0-0.999,0.45-0.999,0.999
	c0,0.547,0.45,0.999,0.999,0.999c0.004,0,0.009,0,0.014,0h48.843c0.005,0,0.01,0,0.014,0c0.548,0,0.999-0.451,0.999-0.999
	c0-0.548-0.45-0.999-0.999-0.999H266.896z"></path>
<path id="color_x5F_3" fill-rule="evenodd" clip-rule="evenodd" fill="#788fdb" d="M242.475,474.266
	c8.416,0,15.217,6.802,15.217,15.218c0,8.416-6.802,15.216-15.217,15.216c-8.417,0-15.217-6.8-15.217-15.216
	C227.258,481.068,234.058,474.266,242.475,474.266L242.475,474.266z M438.442,494.806h-20.105
	c-0.181-1.498-11.629-96.38-13.455-111.505c-0.197-1.636-1.601-2.882-3.25-2.882h-0.148c-1.7,0-3.132,1.324-3.265,3.018
	c-1.208,15.419-8.598,109.801-8.72,111.369h-20.83l4.775-131.79h50.598L438.442,494.806L438.442,494.806z M505.152,259.13h18.59
	c1.006,0,1.861,0.698,2.062,1.683c1.724,8.416,7.348,35.877,9.276,45.289c0.101,0.49-0.025,0.998-0.342,1.385
	c-0.001,0-0.001,0.001-0.002,0.002c-0.316,0.388-0.787,0.61-1.287,0.61h-8.025c-0.797,0-1.473-0.55-1.633-1.33
	c-1.431-6.99-5.956-29.086-7.018-34.274c-0.225-1.099-1.206-1.899-2.325-1.899c-1.121,0-2.101,0.8-2.326,1.899h0.002
	c-1.063,5.189-5.588,27.284-7.02,34.274c-0.16,0.78-0.833,1.33-1.631,1.33h-8.025c-0.5,0-0.974-0.223-1.289-0.61
	c0-0.001,0-0.002,0-0.002c-0.316-0.387-0.44-0.894-0.342-1.385V306.1c1.929-9.413,7.552-36.871,9.275-45.287
	C503.292,259.827,504.146,259.13,505.152,259.13L505.152,259.13L505.152,259.13z M343.629,220.313H141.321v-50.484h202.308V220.313z
	 M176.257,177.856c-9.495,0-17.215,7.72-17.215,17.215c0,9.495,7.72,17.215,17.215,17.215c9.495,0,17.213-7.72,17.213-17.215
	C193.47,185.575,185.752,177.856,176.257,177.856L176.257,177.856z M305.554,199.717h-87.501c-0.005,0-0.01,0-0.014,0
	c-0.548,0-0.999,0.451-0.999,0.999c0,0.548,0.45,0.999,0.999,0.999c0.004,0,0.009,0,0.014,0h87.501c0.005,0,0.01,0,0.014,0
	c0.548,0,0.999-0.45,0.999-0.999c0-0.547-0.45-0.999-0.999-0.999H305.554z M266.896,188.429h-48.843
	c-0.005-0.001-0.01-0.001-0.014-0.001c-0.548,0-0.999,0.451-0.999,1c0,0.547,0.45,0.999,0.999,0.999c0.004,0,0.009,0,0.014,0h48.843
	c0.005,0,0.01,0,0.014,0c0.548,0,0.999-0.451,0.999-0.999c0-0.548-0.45-1-0.999-1L266.896,188.429z M353.668,122.909h-26.327
	c0.304-9.425,4.85-17.027,10.393-18.903C346.569,105.931,353.209,113.592,353.668,122.909z M467.75,115.991h14.724
	c-0.487,3.639-3.589,6.435-7.362,6.435C471.337,122.426,468.238,119.63,467.75,115.991z"></path>
<path id="color_x5F_2" fill-rule="evenodd" clip-rule="evenodd" fill="#f9f6f2" d="M343.629,464.577H141.321V222.311h202.308
	v74.188l-15.025-6.44c-0.149-0.119-15.943-12.722-21.887-17.465c0.024-0.068,0.04-0.139,0.049-0.211l4.206-13.963
	c0.028-0.094,0.043-0.191,0.043-0.289c0-0.548-0.451-0.999-0.999-0.999c-0.002,0-0.004,0-0.006,0l-86.213,0.465
	c-0.045-0.006-0.09-0.01-0.135-0.011c-0.057-0.001-0.114,0.004-0.17,0.013l-18.404,0.1c-0.545,0.003-0.993,0.453-0.993,0.999
	c0,0.091,0.013,0.182,0.037,0.27l15.575,55.822c0.12,0.43,0.515,0.73,0.962,0.73h18.324c0.157,0.039,0.322,0.039,0.479,0h19.1
	c0.158,0.039,0.323,0.039,0.48,0h19.098c0.157,0.039,0.322,0.039,0.479,0h14.396c0.439,0,0.829-0.29,0.956-0.71l2.571-8.533
	c0-0.002,0-0.003,0-0.004l7.78-25.821c1.452,1.533,3.244,3.425,3.565,3.763c-0.29,0.582-1.836,3.692-3.44,6.914
	c-1.674,3.368-0.541,7.477,2.624,9.509c4.947,3.177,11.923,7.659,11.923,7.659c0.004,0.003,0.008,0.005,0.012,0.008
	c0.018,0.011,0.037,0.022,0.056,0.031l0.018,0.01h0.002l0.019,0.012c0,0,13.581,6.515,24.517,11.761L343.629,464.577
	L343.629,464.577z M306.631,441.121H253.68c-0.005,0-0.01,0-0.014,0c-0.548,0-1,0.45-1,0.999c0,0.547,0.451,0.999,1,0.999
	c0.004,0,0.009,0,0.014,0h52.951c0.005,0,0.01,0,0.014,0c0.548,0,1-0.451,1-0.999c0-0.548-0.451-0.999-1-0.999H306.631z
	 M235.351,441.121h-52.952c-0.004,0-0.009,0-0.014,0c-0.547,0-0.999,0.45-0.999,0.999c0,0.547,0.451,0.999,0.999,0.999
	c0.005,0,0.01,0,0.014,0h52.952c0.005,0,0.01,0,0.014,0c0.548,0,0.999-0.451,0.999-0.999c0-0.548-0.45-0.999-0.999-0.999H235.351z
	 M273.164,398.31h-61.378c-7.465,0.001-13.54,6.073-13.54,13.539v0.004c0,7.466,6.075,13.541,13.54,13.541h61.378
	c7.466,0,13.541-6.075,13.541-13.541v-0.004C286.704,404.382,280.63,398.311,273.164,398.31z M279.993,334.119
	c-5.73,0-10.395,4.667-10.395,10.397c0,5.731,4.665,10.397,10.395,10.397c5.731,0,10.398-4.666,10.398-10.397
	C290.392,338.811,285.765,334.161,279.993,334.119z M235.117,334.119c-5.731,0-10.397,4.667-10.397,10.397
	c0,5.731,4.666,10.397,10.397,10.397c5.73,0,10.397-4.666,10.397-10.397C245.514,338.811,240.889,334.161,235.117,334.119z
	 M279.993,336.116c4.651,0,8.401,3.749,8.401,8.4c0,4.651-3.749,8.4-8.401,8.4c-4.65,0-8.398-3.748-8.398-8.4
	C271.596,339.866,275.343,336.116,279.993,336.116z M235.117,336.116c4.65,0,8.4,3.749,8.4,8.4c0,4.651-3.749,8.4-8.4,8.4
	c-4.651,0-8.4-3.748-8.4-8.4C226.717,339.866,230.466,336.116,235.117,336.116z M301.965,326.407h-82.969
	c-4.686,0-8.789-3.114-10.048-7.628c-3.801-13.626-11.268-40.391-14.84-53.194c-1.298-4.656-5.55-7.885-10.383-7.885h-8.79
	c-0.005,0-0.01,0-0.014,0c-0.548,0-0.999,0.45-0.999,0.999s0.45,0.999,0.999,0.999c0.004,0,0.009,0,0.014,0h8.79
	c3.946,0,7.4,2.622,8.46,6.424c3.572,12.803,11.039,39.568,14.84,53.194c1.497,5.368,6.397,9.089,11.971,9.089h82.969h0.015
	c0.547,0,0.999-0.45,0.999-0.999s-0.451-0.999-0.999-0.999L301.965,326.407L301.965,326.407z M292.286,313.523h-13.144
	l-15.08-54.145l17.481-0.094l13.008,46.719L292.286,313.523z M237.911,313.523h-16.484l-15.019-53.833l16.487-0.089L237.911,313.523
	L237.911,313.523z M257.49,313.523h-17.506l-15.019-53.932l17.481-0.096L257.49,313.523L257.49,313.523z M277.068,313.523h-17.505
	l-15.05-54.038l17.481-0.095L277.068,313.523L277.068,313.523z M301.091,259.179l3.498,12.561c-0.232-0.012-0.464-0.005-0.698,0.029
	c-0.964,0.144-1.824,0.682-2.376,1.484c-0.031,0.044-0.056,0.081-0.072,0.104c-0.001,0.001-0.001,0.003-0.002,0.004
	c-0.935,1.36-0.789,3.204,0.346,4.403c0.336,0.355,0.58,0.614,0.965,1.021l-7.121,23.641l-12.019-43.154L301.091,259.179
	L301.091,259.179z M308.67,259.138l-2.868,9.517l-2.641-9.488L308.67,259.138z M176.257,179.853c8.417,0,15.215,6.801,15.215,15.217
	c0,8.416-6.799,15.217-15.215,15.217c-8.416,0-15.217-6.802-15.217-15.217C161.039,186.654,167.841,179.853,176.257,179.853
	L176.257,179.853z M325.343,122.909h-12.235c0.53-10.794,9.355-19.382,20.279-19.382l0,0c0.274,0,0.545,0.009,0.816,0.019
	C329.035,106.968,325.594,114.355,325.343,122.909z"></path>
<path id="color_x5F_1" fill="#0984E3" d="M303.698,79.627c-8.435,0-15.303,6.868-15.303,15.303v35.098H137.058
	c-2.517,0-4.932,1.002-6.713,2.782c-1.78,1.78-2.78,4.194-2.78,6.711V505.42c0,2.516,1,4.932,2.78,6.712
	c0.284,0.284,0.588,0.539,0.902,0.782H58.792c-0.005,0-0.01,0-0.014,0c-0.548,0-1,0.451-1,0.999c0,0.548,0.451,1,1,1
	c0.004,0,0.009-0.001,0.014-0.001h429.562c0.107,0.018,0.217,0.018,0.324,0h39.883c0.004,0,0.009,0.001,0.014,0.001
	c0.547,0,0.999-0.451,0.999-1c0-0.547-0.451-0.999-0.999-0.999c-0.005,0-0.01,0-0.014,0h-12.136c0.705-0.743,1.398-1.508,2.07-2.307
	c8.926-10.638,12.559-23.582,10.524-32.367c-0.099-0.432-0.475-0.749-0.918-0.773c-7.556-0.402-17.294,3.65-25.516,11.238
	c-0.938-13.195-6.466-24.535-13.465-29.802c-0.188-0.142-0.419-0.213-0.655-0.201c-0.198,0.011-0.389,0.081-0.546,0.201
	c-7.084,5.331-12.665,16.881-13.5,30.282c-8.326-7.9-18.316-12.128-26.03-11.719c-0.443,0.024-0.821,0.34-0.921,0.773
	c-2.035,8.784,1.599,21.729,10.524,32.367c0.001,0,0.002,0,0.002,0c0.671,0.799,1.363,1.564,2.068,2.307h-17.705
	c0.669-0.983,0.934-2.195,0.718-3.376c-0.973-5.339-2.524-13.846-2.53-13.882l-13.591-124.402c0.003-0.003,0.007-0.006,0.01-0.01
	c0,0,0.138-0.129,0.344-0.324c1.45-1.366,2.356-3.214,2.548-5.199c0.481-5.016,1.441-14.996,1.48-15.399
	c0.257-0.303,14.23-16.764,22.254-26.218c3.53-4.157,4.227-10.031,1.77-14.898c-5.87-11.63-17.04-33.76-21.827-43.242
	c-1.561-3.093-4.735-5.047-8.199-5.047h-2.686h-9.781v-13.036c4.266-3.456,12.729-11.294,14.233-23.518
	c0.777-6.315-1.158-10.271-3.359-12.524c-1.635-1.673-3.087-2.276-3.9-2.562c0.36-2.565,0.302-5.804-1.472-8.731
	c-1.957-3.228-5.915-5.782-12.771-6.083c-4.127-0.181-9.562,0.592-14.388,0.538c-2.412-0.027-4.66-0.263-6.453-0.868
	c-1.792-0.604-3.101-1.529-3.893-3.002c-0.178-0.33-0.528-0.533-0.903-0.524c-0.192,0.005-0.379,0.064-0.537,0.172
	c-3.937,2.673-6.758,8.207-7.477,11.566c-0.805,3.757-0.507,6.742,0.528,9.04c0.971,2.151,2.578,3.653,4.349,4.644v28.405
	c0,4.586,3.739,8.326,8.326,8.327h7.149v8.156h-8.343c-0.04,0-0.08,0.002-0.12,0.006c-4.093,0.073-7.797,2.486-9.505,6.217
	c-5.124,11.187-15.742,34.375-16.275,35.539l-12.426-5.326v-75.877c0.017-0.107,0.017-0.217,0-0.324v-52.156
	c0.017-0.108,0.017-0.218,0-0.326v-6.601l21.157,17.551c0.179,0.149,0.405,0.23,0.637,0.23c0.548,0,0.999-0.45,0.999-0.999
	c0-0.168-0.042-0.333-0.122-0.479l-11.383-20.772h15.71c8.435,0,15.303-6.869,15.303-15.303V94.931
	c0-8.436-6.869-15.303-15.303-15.303L303.698,79.627L303.698,79.627z M303.698,81.625h68.928c7.353,0,13.306,5.951,13.306,13.306
	v47.368c0,7.354-5.953,13.306-13.306,13.306H355.23c-0.547,0-0.998,0.451-0.998,0.999c0,0.168,0.042,0.333,0.123,0.48l9.675,17.66
	l-18.668-15.486c-0.062-0.068-0.132-0.126-0.209-0.174l-3.915-3.248c-0.18-0.149-0.406-0.231-0.638-0.231h-36.902
	c-7.354,0-13.306-5.952-13.306-13.306V94.931C290.392,87.575,296.344,81.625,303.698,81.625L303.698,81.625z M440.584,101.488
	c-8.437,0-15.304,6.869-15.304,15.303v47.368c0,8.436,6.868,15.303,15.304,15.303h15.709l-11.382,20.774
	c-0.081,0.147-0.123,0.312-0.123,0.479c0,0.548,0.45,0.999,0.999,0.999c0.233,0,0.458-0.081,0.637-0.23l26.546-22.022h36.542
	c8.436,0,15.304-6.868,15.304-15.303v-47.368c0-8.435-6.868-15.303-15.304-15.303H440.584L440.584,101.488z M333.388,101.529
	c-12.347,0-22.379,10.031-22.379,22.379c0,0.547,0.451,0.999,0.999,0.999h13.842c0.28,0.33,2.846,3.351,5.615,6.613
	c3.651,4.299,9.009,6.779,14.65,6.779h14.437c2.006,0,3.806-1.264,4.483-3.154c0.677-1.89,0.092-4.008-1.457-5.283
	c-3.906-3.214-7.494-6.164-7.822-6.435c-0.224-10.532-7.739-19.287-17.697-21.406c-0.101-0.039-0.208-0.06-0.316-0.065
	C336.333,101.676,334.878,101.529,333.388,101.529L333.388,101.529z M440.584,103.485h68.927c7.355,0,13.307,5.952,13.307,13.306
	v47.368c0,7.355-5.952,13.306-13.307,13.306h-36.902c-0.233,0-0.458,0.082-0.638,0.23l-22.792,18.909l9.675-17.661
	c0.081-0.147,0.123-0.312,0.123-0.479c0-0.547-0.45-0.999-0.998-0.999h-17.395c-7.355,0-13.307-5.951-13.307-13.306v-47.368
	C427.277,109.437,433.229,103.485,440.584,103.485L440.584,103.485z M333.388,103.526c0.274,0,0.545,0.009,0.816,0.019
	c-5.169,3.423-8.61,10.81-8.86,19.363h-12.235C313.639,112.115,322.463,103.526,333.388,103.526L333.388,103.526L333.388,103.526z
	 M337.734,104.006c8.834,1.926,15.475,9.586,15.934,18.903h-26.327C327.644,113.484,332.191,105.881,337.734,104.006z
	 M463.938,113.993c-4.294,0-8.446,1.531-11.712,4.319c-3.133,2.675-7.011,5.987-9.036,7.716c-1.169,0.995-1.391,2.737-0.513,3.995
	c1.48,2.122,4.191,6.009,5.749,8.242c0.465,0.667,1.182,1.116,1.984,1.244c0.804,0.129,1.625-0.074,2.275-0.561
	c1.521-1.144,2.844-2.137,3.971-2.985v26.304c0,1.243,0.494,2.437,1.373,3.316h0.002v0.002c0.88,0.88,2.072,1.373,3.315,1.373
	h27.533c1.243,0,2.437-0.494,3.316-1.374c0.88-0.88,1.373-2.073,1.373-3.317v-26.302c1.129,0.848,2.451,1.841,3.972,2.983
	c0.649,0.487,1.471,0.69,2.274,0.561c0.802-0.129,1.519-0.577,1.985-1.244c1.558-2.233,4.27-6.12,5.75-8.242
	c0.878-1.258,0.653-3-0.514-3.995c-2.025-1.729-5.903-5.041-9.036-7.716c-3.266-2.788-7.421-4.319-11.715-4.319h-2.598h-17.008
	H463.938z M463.938,115.991h1.944c0.523,4.706,4.389,8.433,9.231,8.433c4.841,0,8.706-3.726,9.231-8.433h1.941
	c3.819,0,7.513,1.361,10.417,3.841c3.133,2.675,7.011,5.987,9.036,7.715c0.001,0,0.001,0,0.002,0
	c0.398,0.34,0.471,0.903,0.172,1.332c-1.48,2.122-4.193,6.009-5.751,8.242c0,0.001,0,0.002,0,0.002
	c-0.154,0.222-0.395,0.371-0.663,0.413c-0.268,0.043-0.539-0.024-0.757-0.187c-2.133-1.602-5.571-4.185-5.571-4.185
	c-0.173-0.129-0.383-0.199-0.599-0.199c-0.547,0-0.999,0.45-0.999,0.999v28.302c0,0.716-0.282,1.399-0.788,1.904
	c0,0.001-0.001,0.002-0.002,0.002c-0.504,0.506-1.188,0.789-1.902,0.789h-27.533c-0.715,0-1.397-0.283-1.903-0.789
	c0,0-0.001-0.001-0.002-0.002c-0.505-0.504-0.788-1.188-0.788-1.904v-28.302v-0.001c0-0.548-0.45-1-0.999-1
	c-0.217,0-0.427,0.071-0.6,0.201c0,0-3.437,2.583-5.569,4.185c-0.218,0.163-0.491,0.23-0.759,0.187
	c-0.269-0.043-0.507-0.192-0.661-0.413c0,0,0-0.001,0-0.002c-1.558-2.232-4.269-6.12-5.749-8.242
	c-0.301-0.429-0.229-0.993,0.17-1.332c2.024-1.728,5.904-5.04,9.038-7.715C456.428,117.352,460.119,115.991,463.938,115.991
	L463.938,115.991z M467.75,115.991h14.724c-0.487,3.639-3.589,6.435-7.362,6.435C471.337,122.426,468.237,119.63,467.75,115.991z
	 M328.47,124.906h25.938c0.262,0.215,3.955,3.251,7.898,6.496c0.904,0.743,1.242,1.966,0.847,3.066c0,0.001,0,0.001,0,0.002
	c-0.395,1.101-1.432,1.83-2.602,1.83h-14.437c-5.057,0-9.855-2.219-13.127-6.073C330.76,127.603,329.42,126.025,328.47,124.906
	L328.47,124.906L328.47,124.906z M137.058,132.026h5.95c-0.314,0.244-0.619,0.5-0.903,0.784c-1.781,1.78-2.782,4.194-2.782,6.711
	v29.142c-0.018,0.108-0.018,0.219,0,0.327v52.157c-0.018,0.108-0.018,0.217,0,0.325v243.937c-0.018,0.108-0.018,0.218,0,0.326
	v39.687c0,2.516,1.001,4.932,2.782,6.712c0.283,0.284,0.587,0.539,0.901,0.782h-5.948c-1.988,0-3.894-0.788-5.301-2.194
	c-1.405-1.406-2.194-3.312-2.194-5.3V139.521c0-1.988,0.789-3.892,2.194-5.299C133.164,132.816,135.071,132.026,137.058,132.026
	L137.058,132.026L137.058,132.026z M148.815,132.026h139.579v10.273c0,8.435,6.868,15.303,15.303,15.303h36.542l3.39,2.814v7.416
	H141.321v-28.311c0-1.988,0.79-3.892,2.196-5.299C144.924,132.816,146.827,132.026,148.815,132.026L148.815,132.026z
	 M218.054,150.721c-0.005,0-0.01,0-0.014,0c-0.548,0-0.999,0.45-0.999,0.999c0,0.547,0.45,0.999,0.999,0.999
	c0.004,0,0.009,0,0.014,0h48.843c0.005,0,0.01,0,0.014,0c0.548,0,0.999-0.451,0.999-0.999c0-0.548-0.45-0.999-0.999-0.999
	c-0.004,0-0.009,0-0.014,0H218.054L218.054,150.721z M141.321,169.829h202.308v50.484H141.321L141.321,169.829L141.321,169.829z
	 M176.257,177.856c-9.495,0-17.215,7.72-17.215,17.215c0,9.495,7.72,17.215,17.215,17.215c9.495,0,17.213-7.72,17.213-17.215
	C193.47,185.575,185.752,177.856,176.257,177.856L176.257,177.856z M176.257,179.853c8.417,0,15.215,6.801,15.215,15.217
	c0,8.416-6.799,15.217-15.215,15.217c-8.416,0-15.217-6.802-15.217-15.217C161.039,186.654,167.841,179.853,176.257,179.853
	L176.257,179.853z M218.054,188.429c-0.005-0.001-0.01-0.001-0.014-0.001c-0.548,0-0.999,0.451-0.999,1
	c0,0.547,0.45,0.999,0.999,0.999c0.004,0,0.009,0,0.014,0h48.843c0.005,0,0.01,0,0.014,0c0.548,0,0.999-0.451,0.999-0.999
	c0-0.548-0.45-1-0.999-1c-0.004,0-0.009,0-0.014,0.001H218.054z M379.913,193.02c1.087,1.384,2.495,2.432,4.204,3.008
	c2.114,0.713,4.543,0.943,7.068,0.972c5.048,0.056,10.534-0.707,14.324-0.54c6.411,0.281,9.555,2.493,11.148,5.122
	c1.594,2.63,1.616,5.869,1.181,8.178c-0.097,0.518,0.233,1.03,0.745,1.155c0,0,1.911,0.464,3.726,2.321
	c1.815,1.858,3.525,5.053,2.807,10.884c-1.419,11.535-9.547,19.01-13.625,22.295h-5.939c-0.071,0-0.143,0.008-0.213,0.024
	c-0.017,0.001-0.079,0.001-0.201-0.022c-0.247-0.046-0.731-0.195-1.467-0.683c-1.285-0.852-3.459-3.113-6.238-7.11
	c2.744-0.136,5.116-2.02,5.779-4.71c0-0.001,0-0.002,0-0.002c0.119-0.483,0.244-0.994,0.375-1.522c0-0.001,0-0.001,0-0.002
	c0.598-2.428-0.31-4.985-2.304-6.492c-1.996-1.507-4.704-1.682-6.877-0.442c-0.557,0.318-0.63,0.359-0.921,0.524
	c-0.681-0.745-3.668-4.121-5.606-9.921c-0.136-0.407-0.518-0.682-0.947-0.682c-0.133,0-0.264,0.026-0.386,0.077
	c-0.469,0.197-1.862,0.428-3.445,0.326c-1.516-0.098-3.248-0.474-4.797-1.229c-0.055-0.031-0.112-0.056-0.172-0.076
	c-0.012-0.006-0.025-0.009-0.037-0.016c-1.599-0.824-2.969-2.051-3.8-3.892c-0.83-1.841-1.135-4.348-0.396-7.799
	C374.432,200.28,376.998,195.43,379.913,193.02L379.913,193.02L379.913,193.02z M218.054,199.717c-0.005,0-0.01,0-0.014,0
	c-0.548,0-0.999,0.451-0.999,0.999c0,0.548,0.45,0.999,0.999,0.999c0.004,0,0.009,0,0.014,0h87.501c0.005,0,0.01,0,0.014,0
	c0.548,0,0.999-0.45,0.999-0.999c0-0.547-0.45-0.999-0.999-0.999c-0.004,0-0.009,0-0.014,0H218.054z M378.819,216.927
	c1.415,0.499,2.853,0.756,4.153,0.841c1.381,0.089,2.366-0.131,3.318-0.364c2.36,6.477,6.23,10.56,6.23,10.56
	c0.317,0.326,0.817,0.397,1.212,0.171c0,0,0.654-0.375,1.662-0.95c1.484-0.846,3.322-0.727,4.684,0.303
	c1.361,1.03,1.977,2.763,1.568,4.421c-0.131,0.529-0.258,1.042-0.377,1.525h0.002c-0.47,1.91-2.172,3.242-4.139,3.242h-1.649
	c-0.547,0-0.999,0.451-0.999,0.999c0,0.193,0.056,0.381,0.16,0.542c3.514,5.431,6.094,7.968,7.922,9.181
	c0.914,0.606,1.648,0.879,2.204,0.983c0.279,0.052,0.51,0.062,0.692,0.051c0.055-0.003,0.063-0.011,0.116-0.02h5.289v12.507h-16.574
	v-9.155c0-0.548-0.451-0.999-0.999-0.999h-8.148c-3.508-0.001-6.328-2.824-6.328-6.33L378.819,216.927L378.819,216.927z
	 M141.321,222.311h202.308v74.188l-15.025-6.44c-0.149-0.119-15.943-12.722-21.887-17.465c0.024-0.068,0.04-0.139,0.049-0.211
	l4.206-13.963c0.028-0.094,0.043-0.191,0.043-0.289c0-0.548-0.451-0.999-0.999-0.999c-0.002,0-0.004,0-0.006,0l-86.213,0.465
	c-0.045-0.006-0.09-0.01-0.135-0.011c-0.057-0.001-0.114,0.004-0.17,0.013l-18.404,0.1c-0.545,0.003-0.993,0.453-0.993,0.999
	c0,0.091,0.013,0.182,0.037,0.27l15.575,55.822c0.12,0.43,0.515,0.73,0.962,0.73h18.324c0.157,0.039,0.322,0.039,0.479,0h19.1
	c0.158,0.039,0.323,0.039,0.48,0h19.098c0.157,0.039,0.322,0.039,0.479,0h14.396c0.439,0,0.829-0.29,0.956-0.71l2.571-8.533
	c0-0.002,0-0.003,0-0.004l7.78-25.821c1.452,1.533,3.244,3.425,3.565,3.763c-0.29,0.582-1.836,3.692-3.44,6.914
	c-1.674,3.368-0.541,7.477,2.624,9.509c4.947,3.177,11.923,7.659,11.923,7.659c0.004,0.003,0.008,0.005,0.012,0.008
	c0.018,0.011,0.037,0.022,0.056,0.031c0.006,0.004,0.012,0.007,0.018,0.01c0.001,0,0.001,0,0.002,0
	c0.006,0.004,0.013,0.008,0.019,0.012c0,0,13.581,6.515,24.517,11.761v144.457H141.321L141.321,222.311L141.321,222.311z
	 M388.017,240.626c-0.034-0.001-0.067,0-0.1,0.002c-0.4,0.026-0.747,0.29-0.88,0.667c0,0-0.264,0.717-0.977,1.387
	c-0.714,0.67-1.762,1.27-3.672,0.933c-0.066-0.014-0.133-0.021-0.2-0.021c-0.548,0-0.999,0.451-0.999,0.999
	c0,0.492,0.364,0.915,0.849,0.988c2.486,0.44,4.32-0.439,5.388-1.443s1.486-2.155,1.486-2.155c0.044-0.115,0.066-0.236,0.066-0.358
	C388.98,241.091,388.551,240.645,388.017,240.626L388.017,240.626z M480.012,243.467c-8.296,0-15.043,6.675-15.216,14.931
	l-21.59-8.109c-0.111-0.041-0.229-0.063-0.348-0.063c-0.548,0-0.999,0.451-0.999,1c0,0.294,0.13,0.572,0.354,0.762l22.551,18.96
	v34.947c0,8.404,6.844,15.247,15.247,15.247h68.871c8.404,0,15.247-6.844,15.247-15.247v-47.181c0-8.406-6.844-15.247-15.247-15.247
	L480.012,243.467L480.012,243.467z M480.012,245.464h68.871c7.323,0,13.25,5.926,13.25,13.25v47.181
	c0,7.323-5.927,13.25-13.25,13.25h-68.871c-7.323,0-13.25-5.927-13.25-13.25v-35.412c0.001-0.295-0.129-0.575-0.355-0.765
	l-18.451-15.51l17.456,6.556c0.112,0.043,0.231,0.064,0.351,0.064c0.548,0,0.999-0.45,0.999-0.999v-0.001v-1.114
	C466.762,251.39,472.689,245.464,480.012,245.464L480.012,245.464z M505.152,257.132c-1.943,0-3.629,1.378-4.018,3.281
	c-1.723,8.416-7.347,35.875-9.275,45.287c0,0-0.001,0.001-0.002,0.002c-0.219,1.075,0.056,2.195,0.751,3.046
	c0.695,0.853,1.74,1.348,2.839,1.348h8.025c1.734,0,3.24-1.229,3.588-2.928c1.432-6.99,5.958-29.086,7.02-34.274
	c0.038-0.182,0.181-0.301,0.368-0.301c0.186,0,0.332,0.119,0.369,0.301c1.063,5.189,5.587,27.284,7.018,34.274
	c0.348,1.699,1.856,2.928,3.59,2.928h8.025c1.1,0,2.141-0.495,2.837-1.348c0.695-0.851,0.972-1.972,0.751-3.048
	c-1.928-9.412-7.55-36.87-9.274-45.287v-0.002c-0.391-1.903-2.079-3.279-4.021-3.279H505.152z M174.934,257.7
	c-0.005,0-0.01,0-0.014,0c-0.548,0-0.999,0.45-0.999,0.999s0.45,0.999,0.999,0.999c0.004,0,0.009,0,0.014,0h8.79
	c3.946,0,7.4,2.622,8.46,6.424c3.572,12.803,11.039,39.568,14.84,53.194c1.497,5.368,6.398,9.089,11.971,9.089h82.969
	c0.005,0,0.01,0,0.015,0c0.547,0,0.999-0.45,0.999-0.999s-0.451-0.999-0.999-0.999c-0.005,0-0.01,0-0.015,0h-82.969
	c-4.686,0-8.789-3.114-10.048-7.628c-3.801-13.626-11.268-40.391-14.84-53.194c-1.298-4.656-5.55-7.885-10.383-7.885L174.934,257.7
	L174.934,257.7z M505.152,259.13h18.59c1.006,0,1.861,0.698,2.062,1.683c1.724,8.416,7.348,35.877,9.276,45.289
	c0.101,0.49-0.025,0.998-0.342,1.385c-0.001,0-0.001,0.001-0.002,0.002c-0.316,0.388-0.787,0.61-1.287,0.61h-8.025
	c-0.797,0-1.473-0.55-1.633-1.33c-1.431-6.99-5.956-29.086-7.018-34.274c-0.225-1.099-1.206-1.899-2.325-1.899
	c-1.121,0-2.101,0.8-2.326,1.899h0.002c-1.063,5.189-5.588,27.284-7.02,34.274c-0.16,0.78-0.833,1.33-1.631,1.33h-8.025
	c-0.5,0-0.974-0.223-1.289-0.61c0-0.001,0-0.002,0-0.002c-0.316-0.387-0.44-0.894-0.342-1.385V306.1
	c1.929-9.413,7.552-36.871,9.275-45.287C503.292,259.827,504.146,259.13,505.152,259.13L505.152,259.13L505.152,259.13z
	 M308.67,259.138l-2.868,9.517l-2.641-9.488L308.67,259.138z M301.091,259.179l3.498,12.561c-0.232-0.012-0.464-0.005-0.698,0.029
	c-0.964,0.144-1.824,0.682-2.376,1.484c-0.031,0.044-0.056,0.081-0.072,0.104c-0.001,0.001-0.001,0.003-0.002,0.004
	c-0.935,1.36-0.789,3.204,0.346,4.403c0.336,0.355,0.58,0.614,0.965,1.021l-7.121,23.641l-12.019-43.154L301.091,259.179
	L301.091,259.179z M281.543,259.284l13.008,46.719l-2.265,7.52h-13.144l-15.08-54.145L281.543,259.284z M261.994,259.389
	l15.074,54.133h-17.505l-15.05-54.038L261.994,259.389L261.994,259.389z M242.446,259.494l15.044,54.028h-17.506l-15.019-53.932
	L242.446,259.494L242.446,259.494z M222.895,259.6l15.016,53.922h-16.484l-15.019-53.833L222.895,259.6L222.895,259.6z
	 M384.022,262.916h0.002c2.984,0,5.756,1.528,7.35,4.053c1.592,2.524,1.78,5.687,0.495,8.381
	c-5.132,10.762-11.934,25.022-17.422,36.532c-0.043,0.068-0.077,0.14-0.102,0.215c-0.929,1.949-2.144,4.498-2.959,6.205
	c-1.327,2.786-3.708,4.928-6.619,5.956c-2.911,1.028-6.111,0.855-8.893-0.48c-4.164-1.997-6.015-2.885-10.678-5.123
	c-0.089-0.061-0.186-0.108-0.289-0.138c-10.466-5.021-23.259-11.158-24.003-11.515l7.64-14.795l15.547,6.664
	c0.092,0.058,0.193,0.101,0.299,0.127l13.772,5.903c0.494,0.212,1.077-0.012,1.301-0.501c0,0,11.429-24.96,16.681-36.427
	C377.557,264.89,380.63,262.916,384.022,262.916L384.022,262.916L384.022,262.916z M390.234,262.916h32.413
	c1.705,0,3.33,0.714,4.483,1.972c1.152,1.257,1.721,2.939,1.572,4.637c-0.606,6.933-1.23,14.057-2.216,25.326
	c0,0.001,0,0.002,0,0.002c-0.017,0.083-0.025,0.167-0.021,0.25c-1.772,20.251-3.693,42.221-3.978,45.477
	c-0.049,0.149-0.063,0.307-0.041,0.462c-0.018,0.214-0.296,3.388-0.296,3.388c-0.006,0.063-0.006,0.127,0,0.19l1.683,16.4h-50.351
	v-16.461c0.004-0.041,1.297-14.841,2.786-31.852c5.486-11.505,12.278-25.747,17.405-36.499c1.578-3.31,1.348-7.202-0.609-10.303
	C392.313,264.716,391.345,263.709,390.234,262.916L390.234,262.916L390.234,262.916z M428.865,263.86
	c1.214,0.687,2.23,1.712,2.883,3.006c4.787,9.482,15.957,31.611,21.826,43.24c2.097,4.156,1.503,9.156-1.509,12.706
	c-7.811,9.202-20.698,24.386-21.658,25.517l-5.923-7.7c0.075-0.852,0.761-8.682,1.015-11.583l11.873-13.876
	c0.255-0.298,0.312-0.72,0.144-1.075l-9.03-19.196c0.98-11.195,1.601-18.301,2.204-25.199
	C430.878,267.584,430.212,265.49,428.865,263.86L428.865,263.86z M304.498,273.731c0.309,0.018,0.607,0.131,0.854,0.328
	c5.723,4.566,20.576,16.422,21.468,17.133l-7.659,14.832c-0.947-0.608-6.435-4.133-10.999-7.063
	c-2.321-1.491-3.143-4.471-1.915-6.941c1.748-3.514,3.748-7.538,3.748-7.538c0.187-0.375,0.119-0.828-0.169-1.132
	c0,0-2.855-3.013-5.073-5.355c-0.08-0.144-0.196-0.266-0.336-0.355c-0.504-0.532-0.772-0.816-1.184-1.25
	c-0.494-0.522-0.555-1.301-0.15-1.894l0.002-0.002v-0.002c0.03-0.044,0.052-0.075,0.064-0.092c0.003-0.005,0.007-0.011,0.01-0.016
	c0.239-0.348,0.607-0.577,1.024-0.639C304.29,273.729,304.395,273.725,304.498,273.731L304.498,273.731L304.498,273.731z
	 M428.14,298.859l7.295,15.505l-9.636,11.261C426.482,317.812,427.094,310.819,428.14,298.859L428.14,298.859z M373.811,317.855
	c-1.161,13.269-2.323,26.575-2.323,26.575c-0.003,0.029-0.004,0.057-0.004,0.086v17.467l-4.828,133.268
	c-0.619,0.403-13.182,8.578-17.659,11.49c-1.22,0.794-1.957,2.153-1.957,3.609v0.258c0,0.825,0.245,1.622,0.681,2.308h-5.776
	c0.313-0.244,0.617-0.499,0.901-0.783c1.78-1.78,2.78-4.195,2.78-6.712v-39.677c0.018-0.108,0.018-0.218,0-0.326v-144.34
	c4.207,2.018,5.725,2.746,9.384,4.501c3.26,1.564,7.009,1.768,10.42,0.563c3.41-1.204,6.202-3.714,7.759-6.98
	C373.361,318.802,373.635,318.227,373.811,317.855L373.811,317.855L373.811,317.855z M235.117,334.119
	c-5.731,0-10.397,4.667-10.397,10.397c0,5.731,4.666,10.397,10.397,10.397c5.73,0,10.397-4.666,10.397-10.397
	C245.514,338.786,240.847,334.119,235.117,334.119z M279.993,334.119c-5.73,0-10.395,4.667-10.395,10.397
	c0,5.731,4.665,10.397,10.395,10.397c5.731,0,10.398-4.666,10.398-10.397C290.392,338.786,285.724,334.119,279.993,334.119z
	 M235.117,336.116c4.65,0,8.4,3.749,8.4,8.4c0,4.651-3.749,8.4-8.4,8.4c-4.651,0-8.4-3.748-8.4-8.4
	C226.717,339.866,230.466,336.116,235.117,336.116z M279.993,336.116c4.651,0,8.401,3.749,8.401,8.4c0,4.651-3.749,8.4-8.401,8.4
	c-4.65,0-8.398-3.748-8.398-8.4C271.596,339.866,275.343,336.116,279.993,336.116z M424.229,343.57l5.109,6.644
	c-0.049,0.505-0.994,10.328-1.473,15.317c-0.109,1.134-0.526,2.208-1.196,3.111l-0.733-6.707c-0.001-0.006-0.002-0.013-0.002-0.019
	l-1.788-17.405c0.001-0.002,0.081-0.924,0.082-0.942H424.229L424.229,343.57z M373.445,363.016h50.598l14.398,131.79h-20.105
	c-0.181-1.498-11.629-96.38-13.455-111.505c-0.197-1.636-1.601-2.882-3.25-2.882h-0.148c-1.7,0-3.132,1.324-3.265,3.018
	c-1.208,15.419-8.598,109.803-8.72,111.369h-20.83L373.445,363.016L373.445,363.016z M401.485,382.417h0.148
	c0.653,0,1.189,0.475,1.266,1.124c1.838,15.225,13.513,112.003,13.543,112.244c-0.03,0.178-1.436,8.524-2.327,13.813
	c-0.196,1.164,0.07,2.351,0.725,3.317h-24.098c0.437-0.686,0.681-1.483,0.681-2.308v-14.775c0.007-0.087,7.571-96.698,8.788-112.238
	C400.264,382.92,400.81,382.417,401.485,382.417L401.485,382.417z M211.785,398.31c-7.465,0-13.54,6.073-13.54,13.539v0.004
	c0,7.466,6.075,13.541,13.54,13.541h61.378c7.466,0,13.541-6.075,13.541-13.541v-0.004c0-7.466-6.075-13.539-13.541-13.539H211.785z
	 M211.785,400.307h61.378c6.386,0,11.543,5.155,11.543,11.541v0.004c0,6.386-5.157,11.543-11.543,11.543h-61.378
	c-6.385,0-11.542-5.157-11.542-11.543v-0.004C200.243,405.462,205.4,400.307,211.785,400.307z M182.399,441.121
	c-0.004,0-0.009,0-0.014,0c-0.547,0-0.999,0.45-0.999,0.999c0,0.547,0.451,0.999,0.999,0.999c0.005,0,0.01,0,0.014,0h52.952
	c0.005,0,0.01,0,0.014,0c0.548,0,0.999-0.451,0.999-0.999c0-0.548-0.45-0.999-0.999-0.999c-0.004,0-0.009,0-0.014,0H182.399z
	 M253.68,441.121c-0.005,0-0.01,0-0.014,0c-0.548,0-1,0.45-1,0.999c0,0.547,0.451,0.999,1,0.999c0.004,0,0.009,0,0.014,0h52.951
	c0.005,0,0.01,0,0.014,0c0.548,0,1-0.451,1-0.999c0-0.548-0.451-0.999-1-0.999c-0.004,0-0.009,0-0.014,0H253.68z M488.52,461.042
	c6.639,5.465,12.223,17.717,12.223,31.605c0,0.946-0.027,1.885-0.076,2.815c-0.05,0.912-0.122,1.816-0.217,2.708
	c-0.001,0.006-0.001,0.013-0.002,0.019c-0.577,5.399-1.966,10.417-3.868,14.727h-7.061v-37.088c0-0.005,0-0.009,0-0.014
	c0-0.548-0.451-0.999-0.999-0.999c-0.005,0-0.01,0-0.014,0c-0.548,0.008-0.993,0.464-0.985,1.013v37.088h-7.062
	c-2.218-5.028-3.736-11.019-4.085-17.454c-0.049-0.93-0.076-1.869-0.076-2.815C476.298,478.76,481.88,466.507,488.52,461.042
	L488.52,461.042L488.52,461.042z M141.321,466.575h202.308v38.846c0,1.988-0.788,3.894-2.194,5.3
	c-1.406,1.406-3.313,2.195-5.301,2.195H148.815c-1.988,0-3.891-0.789-5.298-2.195c-1.406-1.405-2.196-3.312-2.196-5.3
	L141.321,466.575L141.321,466.575z M242.475,472.269c-9.495,0-17.215,7.72-17.215,17.216c0,9.495,7.72,17.213,17.215,17.213
	c9.495,0,17.215-7.718,17.215-17.213C259.69,479.988,251.971,472.269,242.475,472.269z M242.475,474.266
	c8.416,0,15.217,6.802,15.217,15.218c0,8.416-6.802,15.216-15.217,15.216c-8.417,0-15.217-6.8-15.217-15.216
	C227.258,481.068,234.058,474.266,242.475,474.266z M527.193,479.543c1.414,7.867-1.94,19.902-10.228,29.779
	c-1.072,1.276-2.202,2.465-3.359,3.594h-13.162l18.69-22.274c0.156-0.182,0.242-0.412,0.242-0.652c0-0.547-0.45-0.999-0.999-0.999
	c-0.006,0-0.012,0-0.017,0c-0.295,0.005-0.571,0.14-0.757,0.368l-18.023,21.478c1.405-3.861,2.413-8.131,2.872-12.659
	c0.02-0.198,0.03-0.401,0.049-0.599c0.062-0.693,0.125-1.386,0.162-2.089c0.05-0.939,0.078-1.886,0.078-2.842
	c0-0.424-0.012-0.845-0.022-1.264C510.586,483.614,520.158,479.485,527.193,479.543L527.193,479.543L527.193,479.543z
	 M449.296,479.545c7.196-0.059,17.049,4.265,25.013,12.376c-0.003,0.242-0.008,0.483-0.008,0.726c0,0.957,0.028,1.905,0.078,2.844
	c0.031,0.584,0.085,1.16,0.133,1.737c0.028,0.329,0.048,0.662,0.082,0.989c0.505,4.965,1.659,9.634,3.287,13.776l-18.994-22.635
	c-0.193-0.235-0.482-0.371-0.786-0.367c-0.543,0.008-0.986,0.456-0.986,0.999c0,0.24,0.086,0.47,0.242,0.652l18.688,22.273h-13.161
	c-1.157-1.128-2.288-2.314-3.36-3.591v-0.002C451.238,499.446,447.883,487.412,449.296,479.545L449.296,479.545z M367.934,496.804
	h21.492v13.803c0,0.612-0.244,1.198-0.677,1.631c-0.433,0.433-1.021,0.676-1.633,0.676h-35.768c-0.612,0-1.2-0.243-1.633-0.676
	c-0.431-0.434-0.675-1.02-0.675-1.631v-0.258c0-0.782,0.395-1.508,1.05-1.935C354.613,505.47,367.576,497.036,367.934,496.804
	L367.934,496.804z M418.294,496.804h20.428c0.167,0.911,1.468,8.058,2.386,13.093c0.137,0.746-0.066,1.514-0.552,2.097
	c-0.486,0.583-1.206,0.92-1.965,0.92h-19.985c-0.753,0-1.466-0.332-1.953-0.907c-0.487-0.576-0.695-1.333-0.57-2.077
	C416.932,504.903,418.138,497.729,418.294,496.804z M31.435,512.914c-0.005,0-0.009,0-0.014,0c-0.548,0-0.999,0.451-0.999,0.999
	c0,0.548,0.45,1,0.999,1c0.005,0,0.009-0.001,0.014-0.001h13.887c0.005,0,0.01,0.001,0.014,0.001c0.548,0,1-0.451,1-1
	c0-0.547-0.451-0.999-1-0.999c-0.004,0-0.009,0-0.014,0H31.435z"></path>
</svg>