<?xml version="1.0" standalone="no"?>
<svg version="1.1" id="Layer_1_15_" xmlns="http://www.w3.org/2000/svg" xmlns:xlink="http://www.w3.org/1999/xlink" x="0px" y="0px" viewBox="0 0 595.276 595.276" enable-background="new 0 0 595.276 595.276" xml:space="preserve">
<path id="color_x5F_6" fill-rule="evenodd" clip-rule="evenodd" fill="#f0efef" d="M385.169,400.016h-5.856
	c-0.6,0-1.186-0.119-1.727-0.342c-0.533-0.222-1.03-0.548-1.452-0.978c-0.43-0.422-0.756-0.919-0.979-1.453
	c-0.223-0.54-0.341-1.127-0.341-1.727c0-1.816,0.245-3.603,0.711-5.315c0.474-1.72,1.179-3.38,2.097-4.929l5.715-9.628
	c0.119-0.193,0.171-0.423,0.126-0.667l-9.503-56.926l13.506-1.764l5.077,38.18l0.008,0.023l2.55,19.183
	c0.014,0.119,0.052,0.23,0.111,0.341c0.015,0.03,0.03,0.06,0.067,0.111c0.022,0.045,0.044,0.082,0.059,0.112
	c1.157,2.149,1.586,4.551,1.312,6.871c-0.275,2.335-1.246,4.581-2.884,6.412l-3.121,3.484c-0.193,0.178-0.311,0.436-0.311,0.719
	v3.127c0,0.689-0.134,1.364-0.394,1.98c-0.252,0.615-0.629,1.186-1.119,1.675c-0.489,0.489-1.06,0.867-1.675,1.12
	C386.533,399.882,385.858,400.016,385.169,400.016L385.169,400.016z M261.021,367.943h-6.493c-0.986,0-1.913-0.326-2.669-0.889
	c-0.748-0.563-1.326-1.356-1.608-2.305l-2.032-6.887c-0.118-0.511-0.629-0.845-1.156-0.741l-10.304,2.024
	c-0.371,0.074-0.748,0.067-1.105-0.007c-0.348-0.082-0.689-0.238-0.993-0.459c-0.304-0.216-0.556-0.497-0.734-0.816
	c-0.185-0.311-0.304-0.659-0.349-1.03v-0.015c-0.074-0.674,0.112-1.319,0.482-1.831c0.363-0.519,0.919-0.897,1.586-1.038
	l25.728-5.403c0.119-0.015,0.223-0.052,0.327-0.104l43.414-17.797c0.178-0.074,0.341-0.2,0.459-0.371l1.179-1.771
	c0.03-0.037,0.059-0.082,0.089-0.126l2.231-3.358l15.225,10.103l-3.795,7.219c-0.756,1.423-1.801,2.647-3.053,3.596
	c-1.253,0.948-2.706,1.623-4.277,1.957l-7.353,1.571c-0.037,0.007-0.074,0.015-0.112,0.022l-33.296,7.108
	c-0.919,0.201-1.779,0.593-2.513,1.142c-0.726,0.548-1.348,1.253-1.801,2.082l-3.165,5.804c-0.386,0.712-0.956,1.29-1.638,1.698
	C262.622,367.72,261.836,367.943,261.021,367.943L261.021,367.943z M146.82,201.886c0.297,5.893,3.224,11.192,7.805,15.084
	c4.788,4.062,11.393,6.582,18.679,6.582c7.286,0,13.898-2.52,18.686-6.582c3.187-2.713,5.574-6.108,6.834-9.91
	c1.252,3.802,3.64,7.197,6.827,9.91c4.788,4.07,11.4,6.582,18.686,6.582c7.286,0,13.891-2.512,18.679-6.582
	c3.194-2.713,5.581-6.108,6.834-9.91c1.252,3.802,3.64,7.197,6.834,9.91c4.789,4.062,11.393,6.582,18.679,6.582
	c2.898,0,5.685-0.4,8.287-1.134v98.791c0,0.808-0.156,1.601-0.459,2.32c-0.297,0.726-0.741,1.393-1.312,1.965
	c-0.57,0.57-1.238,1.015-1.964,1.311c-0.719,0.305-1.512,0.459-2.32,0.459H146.768c-0.808,0-1.594-0.155-2.32-0.459
	c-0.719-0.297-1.386-0.741-1.957-1.311h-0.008c-0.563-0.571-1.008-1.238-1.311-1.965c-0.297-0.719-0.459-1.512-0.459-2.32V201.886
	H146.82L146.82,201.886z M237.562,229.57c-0.015-0.007-0.03-0.014-0.045-0.014l-11.801-4.433l-0.014-0.008
	c-0.201-0.089-0.422-0.111-0.638-0.059h-0.007l-0.007,0.007h-0.008c-8.428,2.239-16.552,2.491-25.491,0.067l-0.192-0.059h-0.023
	l-0.007-0.008c-0.215-0.052-0.422-0.044-0.63,0.037l-0.444,0.171l-3.113,1.172c-0.03,0.007-0.067,0.022-0.097,0.037l-8.198,3.076
	c-0.155,0.044-0.289,0.126-0.408,0.237l-24.46,21.57l-0.696,0.607l-0.015,0.015c-0.371,0.357-0.43,0.912-0.119,1.334l0.015,0.015
	l13.082,18.968c0.357,0.504,0.972,0.556,1.438,0.215l10.451-8.45v39.878c0,1.304,0.533,2.491,1.393,3.351v0.007
	c0.853,0.86,2.039,1.386,3.351,1.386h42.612c1.305,0,2.491-0.534,3.351-1.393c0.86-0.86,1.393-2.047,1.393-3.351v-39.878l6.96,5.626
	l0.03,0.022l2.942,2.379l0.519,0.423c0.022,0.015,0.037,0.03,0.059,0.037c0.178,0.126,0.379,0.186,0.578,0.178
	c0.327-0.007,0.608-0.155,0.801-0.429l13.082-18.968c0.141-0.178,0.215-0.378,0.215-0.608c0-0.282-0.111-0.555-0.341-0.756
	l-1.297-1.149l-23.86-21.029l-0.029-0.03l-0.015-0.007l-0.008-0.015h-0.007v-0.007l-0.03-0.015l-0.03-0.03h-0.007l-0.022-0.022
	h-0.008l-0.007-0.007h-0.007l-0.015-0.008l-0.015-0.015h-0.015l-0.007-0.007l-0.015-0.008l-0.008-0.007h-0.007l-0.015-0.007h-0.007
	c-0.008-0.008-0.023-0.015-0.037-0.023h-0.008l-0.007-0.007h-0.015l-0.008-0.008L237.562,229.57L237.562,229.57z M327.138,278.625
	v0.008c-1.794,1.423-3.424,2.55-4.907,3.439c-1.66,0.986-3.127,1.683-4.425,2.149c-1.816,0.652-3.743,0.638-5.477,0.045
	c-1.713-0.585-3.232-1.727-4.27-3.328l-0.03-0.045c-0.408-0.652-0.8-1.311-1.179-1.972c-0.007-0.022-0.022-0.044-0.029-0.067
	c-6.753-11.823-9.554-25.401-10.333-29.827c9.97,2.201,18.576-2.676,21.37-4.514c3.913,6.782,12.096,9.295,12.126,9.302
	c0.422,0.134,0.897-0.029,1.142-0.423l0.778-1.244c0.511-0.831,1.26-1.453,2.112-1.824c0.83-0.356,1.764-0.474,2.691-0.304
	c0.03,0.007,0.052,0.015,0.082,0.015c0.956,0.192,1.801,0.666,2.446,1.333c0.637,0.66,1.075,1.505,1.238,2.446l0.015,0.067v0.022
	c0.089,0.556,0.059,1.12-0.082,1.661c-0.133,0.548-0.386,1.067-0.733,1.519l-3.121,4.032c-0.289,0.349-0.311,0.868-0.029,1.246
	l3.09,4.032c0.067,0.245,0.23,0.467,0.459,0.6l2.017,2.632c0.022,0.037,0.044,0.067,0.067,0.096l3.898,5.093
	c0.623,0.815,1.068,1.734,1.327,2.705c0.252,0.979,0.319,2.002,0.178,3.017c-0.141,1.016-0.482,1.979-0.994,2.847
	c-0.511,0.867-1.194,1.63-2.016,2.245l-0.008,0.008c-1.541,1.156-3.395,1.645-5.203,1.504c-1.802-0.141-3.559-0.919-4.9-2.297
	l-5.174-5.323l4.714-3.491c0.444-0.327,0.533-0.942,0.208-1.386c-0.327-0.437-0.949-0.533-1.386-0.208l-5.589,4.136v0.008h-0.014
	v0.007h-0.008v0.008h-0.007l-0.008,0.007h-0.007v0.007h-0.007v0.008h-0.015v0.007L327.138,278.625L327.138,278.625z"></path>
<path id="color_x5F_5" fill-rule="evenodd" clip-rule="evenodd" fill="#FFD2BB" d="M424.936,489.067h-38.121
	c-0.549,0-1.083-0.104-1.564-0.305c-0.482-0.2-0.934-0.503-1.319-0.889c-0.386-0.386-0.682-0.83-0.882-1.312
	c-0.201-0.489-0.312-1.015-0.312-1.564v-1.082c0-0.608,0.134-1.201,0.386-1.735c0.252-0.526,0.615-1.008,1.09-1.393
	c3.536-2.935,18.723-15.543,20.969-17.411h22.793l1.03,21.421c0.03,0.563-0.059,1.112-0.252,1.623
	c-0.186,0.511-0.481,0.986-0.867,1.386c-0.386,0.408-0.845,0.719-1.342,0.934C426.041,488.956,425.499,489.067,424.936,489.067
	L424.936,489.067z M372.909,489.067h-42.242c-1.127,0-2.142-0.452-2.884-1.194c-0.734-0.734-1.186-1.75-1.186-2.877v-0.867
	c0-0.659,0.155-1.289,0.436-1.853c0.297-0.571,0.719-1.068,1.246-1.453l24.209-17.448h23.482l1.009,21.428
	c0.029,0.556-0.06,1.113-0.253,1.616c-0.185,0.511-0.481,0.986-0.867,1.393c-0.386,0.401-0.845,0.712-1.341,0.927
	C374.014,488.956,373.473,489.067,372.909,489.067L372.909,489.067z M266.017,383.828H158.353c-2.342,0-4.639-0.459-6.753-1.334
	c-2.112-0.882-4.061-2.171-5.722-3.832c-1.653-1.653-2.949-3.602-3.824-5.714c-0.875-2.12-1.341-4.411-1.341-6.753v-0.008
	c0-2.342,0.466-4.632,1.341-6.752c0.867-2.09,2.142-4.025,3.772-5.671c0.023-0.015,0.037-0.029,0.052-0.044
	c1.661-1.661,3.61-2.95,5.722-3.825c2.113-0.882,4.411-1.341,6.753-1.341h93.335l-16.447,3.455
	c-1.164,0.244-2.142,0.911-2.795,1.816c-0.637,0.889-0.964,2.001-0.845,3.157c0,0.045,0.007,0.089,0.015,0.126
	c0.074,0.623,0.282,1.216,0.592,1.757c0.32,0.548,0.756,1.038,1.275,1.416c0.163,0.118,0.326,0.222,0.489,0.319l-3.128,3.987
	l-6.731-8.576c-0.341-0.437-0.963-0.511-1.393-0.171c-0.429,0.342-0.511,0.964-0.17,1.393l7.301,9.303v9.229
	c0,0.548,0.444,0.993,0.993,0.993c0.548,0,1.001-0.444,1.001-0.993v-9.229l4.203-5.359c0.363,0.014,0.726-0.008,1.09-0.082
	l9.421-1.853l1.786,6.071c0.409,1.371,1.239,2.527,2.328,3.335c1.09,0.816,2.431,1.282,3.854,1.282h6.493
	c1.179,0,2.305-0.319,3.291-0.904c0.971-0.578,1.801-1.416,2.364-2.454l3.165-5.804c0.312-0.57,0.741-1.06,1.252-1.437
	c0.511-0.379,1.098-0.652,1.735-0.786l8.124-1.742c0.822,1.312,1.467,2.721,1.92,4.188c0.511,1.66,0.778,3.417,0.778,5.196v0.008
	c0,2.342-0.459,4.632-1.341,6.753c-0.875,2.112-2.164,4.061-3.825,5.714c-1.653,1.661-3.602,2.95-5.715,3.832
	C270.65,383.368,268.359,383.828,266.017,383.828L266.017,383.828z M193.785,355.624h-10.244c-0.549,0-0.994,0.444-0.994,0.994
	v19.249l0.008,0.023v0.022l0.007,0.03v0.022l0.015,0.044l0.007,0.03l0.045,0.134l0.015,0.022l0.007,0.022l0.015,0.023l0.007,0.022
	l0.015,0.015l0.015,0.022l0.007,0.022l0.015,0.015l0.03,0.045l0.015,0.014l0.015,0.023l0.014,0.014l0.023,0.015l0.015,0.023
	l0.029,0.029l0.023,0.015l0.014,0.015l0.023,0.015l0.014,0.015l0.045,0.029l0.015,0.015l0.022,0.015l0.022,0.007l0.023,0.015
	l0.022,0.008l0.022,0.015l0.015,0.007l0.022,0.007l0.03,0.015l0.134,0.045h0.029l0.022,0.007h0.023l0.029,0.008h0.023l0.022,0.007
	h10.326c1.593,0,3.038-0.645,4.084-1.69c1.045-1.045,1.69-2.491,1.69-4.092c0-1.593-0.645-3.038-1.69-4.084
	c-0.26-0.259-0.541-0.496-0.845-0.696c0.304-0.208,0.585-0.445,0.845-0.697c1.045-1.053,1.69-2.49,1.69-4.091
	c0-1.594-0.645-3.039-1.69-4.084C196.824,356.269,195.379,355.624,193.785,355.624L193.785,355.624z M202.442,356.618
	c0-0.549,0.444-0.994,0.993-0.994s0.994,0.444,0.994,0.994v11.629c0,1.802,0.733,3.432,1.912,4.61
	c1.179,1.179,2.81,1.913,4.61,1.913c1.802,0,3.432-0.734,4.61-1.913c1.179-1.179,1.906-2.809,1.906-4.61v-11.629
	c0-0.549,0.444-0.994,0.993-0.994c0.556,0,1.001,0.444,1.001,0.994v11.629c0,2.35-0.956,4.478-2.498,6.019
	c-1.534,1.542-3.662,2.491-6.012,2.491c-2.349,0-4.477-0.949-6.019-2.491c-1.541-1.541-2.49-3.669-2.49-6.019V356.618z
	 M193.785,374.77h-9.251v-7.583h9.251c1.045,0,1.994,0.422,2.676,1.112c0.689,0.682,1.112,1.631,1.112,2.676
	c0,1.053-0.423,1.995-1.112,2.684C195.778,374.34,194.829,374.77,193.785,374.77z M193.785,365.193h-9.251v-7.576h9.251
	c1.045,0,1.994,0.422,2.676,1.105c0.689,0.689,1.112,1.638,1.112,2.684c0,1.045-0.423,1.994-1.112,2.683
	C195.778,364.771,194.829,365.193,193.785,365.193z M177.189,268.745l-11.987-17.575l-1.853,1.638l-0.089,0.074l12.008,17.412
	L177.189,268.745L177.189,268.745z M259.168,251.17l-11.986,17.575l1.92,1.549l12.008-17.412l-0.741-0.652L259.168,251.17z
	 M236.242,265.868h-48.114v-12.601h48.114V265.868z M317.036,216.392c6.433,0.029,10.139,3.985,11.801,6.403
	c0.044,0.09,0.104,0.179,0.178,0.253c0.607,0.926,0.897,1.571,0.897,1.579c0.185,0.408,0.607,0.629,1.03,0.57
	c0.037,0,11.972-1.712,13.209,12.371c1.031,11.726-2.35,22.459-3.832,26.484l-1.749-2.29l2.676-3.462
	c0.518-0.674,0.889-1.445,1.09-2.253c0.208-0.8,0.245-1.653,0.111-2.49v-0.015l-0.015-0.06c-0.23-1.341-0.86-2.549-1.764-3.484
	c-0.927-0.956-2.127-1.638-3.491-1.912c-0.008-0.002-0.015-0.003-0.023-0.005l-0.044-0.006c-0.008-0.001-0.015-0.002-0.022-0.004
	c-1.327-0.245-2.669-0.082-3.854,0.437c-1.224,0.526-2.283,1.415-3.017,2.587l-0.356,0.57c-2.069-0.785-8.072-3.484-10.755-9.043
	c-0.238-0.496-0.831-0.704-1.327-0.466c-0.059,0.037-0.126,0.074-0.178,0.118c-0.349,0.268-10.347,7.813-21.969,4.493
	c-0.675-0.349-5.552-2.98-9.784-7.821c1.445-2.601,7.99-13.364,20.487-19.59c0.052-0.022,0.104-0.044,0.148-0.074
	c0.749-0.364,1.512-0.719,2.298-1.053c0.274-0.119,0.548-0.223,0.815-0.327c0.03-0.007,0.052-0.022,0.074-0.029
	c2.733-1.049,5.147-1.479,7.267-1.483L317.036,216.392L317.036,216.392z M209.758,234.263c0.644,0.067,1.289,0.104,1.942,0.119
	c0.912,0.015,1.824-0.015,2.728-0.104l0.059-0.007h0.06c0.459-0.045,0.904-0.104,1.341-0.179l0.059-0.007h0.015
	c1.209-0.193,2.416-0.474,3.581-0.89c1.134-0.4,2.223-0.926,3.231-1.608c1.72-1.149,2.905-2.587,3.336-4.195l0.378,0.141
	l1.267,0.474c-0.089,0.296-0.193,0.585-0.311,0.867c-0.245,0.555-0.541,1.082-0.883,1.556h-0.007
	c-0.63,0.868-1.408,1.616-2.283,2.261c-0.986,0.726-2.097,1.326-3.246,1.801c-1.379,0.571-2.81,0.979-4.277,1.252
	c-1.564,0.282-3.165,0.409-4.759,0.401c-1.808-0.015-3.632-0.208-5.403-0.607c-1.616-0.379-3.179-0.927-4.647-1.698
	c-1.038-0.548-2.024-1.216-2.876-2.009c-0.749-0.697-1.394-1.49-1.876-2.394c-0.185-0.349-0.341-0.712-0.474-1.083
	c-0.037-0.111-0.074-0.23-0.104-0.341l1.646-0.622c0.356,1.311,1.208,2.512,2.446,3.536c0.019,0.013,0.038,0.028,0.056,0.044
	l0.036,0.03c0.018,0.015,0.037,0.03,0.056,0.044c1.001,0.793,2.127,1.416,3.321,1.891c0.912,0.371,1.853,0.652,2.81,0.867
	l0.007,0.007l0.059,0.008c0.838,0.193,1.705,0.334,2.61,0.429l0.022,0.008h0.059l0.015,0.007L209.758,234.263L209.758,234.263z
	 M299.861,201.886c-0.304,5.286-2.957,10.051-7.093,13.565c-2.364,2.009-5.211,3.61-8.383,4.669c-0.03,0.008-0.067,0.015-0.097,0.03
	c-2.765,0.912-5.774,1.408-8.924,1.408c-6.805,0-12.956-2.335-17.397-6.108c-4.143-3.514-6.797-8.279-7.093-13.565H299.861
	L299.861,201.886z M197.802,201.886c-0.304,5.286-2.957,10.051-7.093,13.565c-4.448,3.772-10.599,6.108-17.404,6.108
	c-6.805,0-12.956-2.335-17.397-6.108c-4.143-3.514-6.797-8.279-7.093-13.565H197.802L197.802,201.886z M197.327,199.892h-47.913
	l-43.947-43.948h47.913L197.327,199.892L197.327,199.892z M298.78,199.892h-47.913l-43.948-43.948h47.913L298.78,199.892z"></path>
<path id="color_x5F_4" fill-rule="evenodd" clip-rule="evenodd" fill="#61db98" d="M518.842,489.067h-17.167l23.741-28.293
	c0.357-0.415,0.297-1.046-0.118-1.393c-0.422-0.357-1.053-0.297-1.401,0.118l-23.49,27.989c2.979-7.59,4.44-15.929,4.44-24.038
	v-0.03l-0.007-0.015v-0.081c0-0.541-0.007-1.083-0.022-1.624c4.936-4.892,10.421-8.672,15.81-11.221
	c5.44-2.58,10.77-3.891,15.328-3.81c0.994,5.093,0.385,11.474-1.808,18.16c-2.157,6.59-5.849,13.454-11.052,19.657
	c-0.749,0.89-1.483,1.72-2.209,2.491C520.236,487.681,519.547,488.377,518.842,489.067L518.842,489.067z M472.241,489.067h-17.159
	c-0.711-0.69-1.393-1.386-2.052-2.083c-0.727-0.778-1.46-1.608-2.209-2.498c-5.204-6.203-8.887-13.067-11.052-19.657
	c-2.186-6.686-2.802-13.067-1.809-18.16c4.67-0.081,10.155,1.297,15.729,4.003c5.507,2.661,11.097,6.611,16.085,11.704
	c-0.141,9.087,1.527,18.323,5.07,26.692h-0.007l-24.809-29.568c-0.356-0.414-0.979-0.474-1.401-0.118
	c-0.422,0.348-0.474,0.978-0.126,1.393L472.241,489.067L472.241,489.067z M486.31,489.067h-9.303
	c-6.767-15.292-6.953-34.015-0.785-49.381c2.824-7.026,6.738-12.712,11.081-16.202l0.102,0.082c4.304,3.498,8.185,9.149,10.98,16.12
	c2.765,6.887,4.463,15.055,4.47,23.719v0.045c0,8.664-1.712,17.649-5.256,25.617h-9.302v-46.661c0-0.548-0.444-1.001-0.994-1.001
	c-0.548,0-0.993,0.452-0.993,1.001L486.31,489.067L486.31,489.067z M375.844,461.39h-22.792l-5.463-45.941
	c-0.393-3.328-0.17-6.664,0.623-9.851c0.793-3.187,2.164-6.233,4.069-8.983l26.432-38.07l2.736,16.403l-5.53,9.31
	c-1.008,1.698-1.779,3.521-2.305,5.426c-0.518,1.897-0.785,3.861-0.785,5.833c0,0.853,0.17,1.698,0.496,2.483
	c0.319,0.786,0.8,1.497,1.401,2.105c0.607,0.607,1.326,1.082,2.112,1.408c0.393,0.163,0.8,0.282,1.216,0.371l-5.96,7.242
	c-0.185,0.2-0.289,0.466-0.275,0.763L375.844,461.39L375.844,461.39z M427.545,461.39h-22.081l-25.297-54.644
	c-0.385-0.845-0.519-1.764-0.408-2.646c0.096-0.741,0.363-1.46,0.785-2.097h4.625c0.942,0,1.868-0.186,2.736-0.541
	c0.867-0.364,1.66-0.882,2.327-1.549c0.667-0.667,1.186-1.46,1.549-2.327c0.356-0.868,0.548-1.794,0.548-2.736v-2.75l2.913-3.254
	c1.92-2.149,3.068-4.788,3.387-7.516c0.312-2.728-0.193-5.552-1.571-8.087l-0.015-0.022l-2.416-18.16
	c6.641-2.024,13.186-4.907,19.642-8.502c6.441-3.581,12.794-7.857,19.087-12.683l1.764,2.416c2.624,3.588,4.002,7.806,4.121,12.06
	c0.119,4.255-1.023,8.539-3.439,12.274l-25.121,38.818c-0.749,1.15-1.216,2.446-1.386,3.78c-0.17,1.334-0.052,2.706,0.379,4.003
	L427.545,461.39L427.545,461.39z M248.828,201.886c-0.297,5.286-2.95,10.051-7.093,13.565c-4.441,3.772-10.592,6.108-17.397,6.108
	c-6.805,0-12.956-2.335-17.404-6.108c-4.136-3.514-6.79-8.279-7.086-13.565H248.828L248.828,201.886z M350.888,201.886
	c-0.267,4.796-2.483,9.169-5.989,12.564c-3.707,3.595-8.85,6.093-14.684,6.864c-2.669-3.692-9.095-9.732-20.754-5.477
	c-0.979-0.786-1.883-1.646-2.691-2.557c-0.037-0.037-0.067-0.082-0.104-0.119c-1.075-1.216-1.987-2.543-2.721-3.943
	c-1.179-2.261-1.898-4.729-2.039-7.331H350.888L350.888,201.886z M146.598,199.892h-42.539v-42.54L146.598,199.892z
	 M349.509,199.892h-47.913l-43.948-43.948h47.913L349.509,199.892z M248.057,199.892h-47.913l-43.955-43.948h47.913L248.057,199.892
	L248.057,199.892z"></path>
<path id="color_x5F_3" fill-rule="evenodd" clip-rule="evenodd" fill="#ebfff5" d="M105.66,105.489
	c-0.297,0.23-0.578,0.481-0.853,0.749c-1.69,1.697-2.743,4.039-2.743,6.619v368.834c0,2.588,1.053,4.93,2.743,6.627
	c0.275,0.267,0.556,0.519,0.853,0.749h-9.066c-0.986,0-1.949-0.193-2.831-0.556c-0.883-0.371-1.698-0.904-2.387-1.601
	c-0.697-0.689-1.231-1.504-1.601-2.387c-0.364-0.882-0.556-1.845-0.556-2.832V112.857c0-0.979,0.193-1.943,0.556-2.825
	c0.371-0.882,0.904-1.697,1.601-2.386v-0.008c0.689-0.689,1.504-1.231,2.387-1.593c0.882-0.364,1.845-0.556,2.831-0.556
	L105.66,105.489L105.66,105.489z M218.356,465.637c0-3.817-1.549-7.279-4.054-9.784c-2.498-2.505-5.96-4.054-9.784-4.054
	c-3.825,0-7.286,1.549-9.792,4.054c-2.505,2.505-4.054,5.967-4.054,9.784c0,3.824,1.549,7.286,4.054,9.792
	c2.506,2.505,5.967,4.054,9.792,4.054c3.824,0,7.286-1.549,9.784-4.054C216.807,472.923,218.356,469.461,218.356,465.637z
	 M385.762,277.647l6.545,36.964l0.007,0.045c0.067,0.541-0.311,1.038-0.852,1.112l-2.032,0.26l4.929,37.039
	c6.397-1.972,12.705-4.766,18.946-8.243c6.337-3.521,12.609-7.746,18.827-12.504L385.762,277.647L385.762,277.647z M345.729,287.231
	c-1.943,1.453-4.277,2.069-6.545,1.891c-2.268-0.178-4.47-1.157-6.168-2.899l-5.025-5.159l-20.814,38.388
	c-0.134,0.245-0.201,0.511-0.208,0.779v0.126c0,0.126,0.015,0.245,0.045,0.363c0.103,0.415,0.356,0.794,0.741,1.046l17.989,11.934
	c0.208,0.141,0.444,0.23,0.682,0.267c0.245,0.045,0.496,0.037,0.741-0.029c0.245-0.06,0.466-0.179,0.659-0.327
	c0.186-0.156,0.349-0.349,0.467-0.578l13.735-26.662c0.252-0.489,0.845-0.682,1.333-0.429c0.156,0.081,0.275,0.192,0.364,0.326
	l33.904,45.801l-5.641-33.763l-5.96,0.778c-0.533,0.067-1.023-0.296-1.104-0.83l-7.598-48.676c-0.282-1.801-0.193-3.625,0.245-5.345
	c0.26-1.023,0.637-2.009,1.134-2.949c-5.566,3.105-11.919,6.723-14.321,8.094l3.247,4.232c0.778,1.023,1.341,2.186,1.668,3.41
	c0.319,1.223,0.407,2.513,0.23,3.787c-0.178,1.282-0.608,2.498-1.252,3.588c-0.645,1.09-1.497,2.054-2.528,2.824L345.729,287.231
	L345.729,287.231z M369.277,256.218c2.942-0.327,5.759,0.518,7.968,2.171c2.208,1.653,3.817,4.121,4.329,7.034l8.598,48.513
	l-1.964,0.252h-0.022l-15.499,2.024l-0.03,0.008l-5.922,0.771l-7.45-47.713c-0.237-1.534-0.163-3.083,0.215-4.558
	c0.379-1.482,1.046-2.876,1.987-4.106c0.534-0.704,1.142-1.327,1.809-1.876c0.022-0.015,0.037-0.03,0.052-0.044
	c0.496-0.409,1.023-0.764,1.579-1.083c1.319-0.741,2.795-1.223,4.336-1.393L369.277,256.218L369.277,256.218z M236.242,267.855
	v36.09c0,0.764-0.305,1.453-0.808,1.957c-0.497,0.489-1.179,0.801-1.943,0.801h-42.612c-0.756,0-1.446-0.312-1.95-0.808
	c-0.496-0.496-0.801-1.186-0.801-1.95v-36.09L236.242,267.855L236.242,267.855z M238.236,232.714v28.797l7.397,5.982l12.037-17.642
	L238.236,232.714L238.236,232.714z M166.7,249.851l12.037,17.642l7.397-5.982v-28.797L166.7,249.851z M236.242,251.274v-20.08
	l-6.62-2.483c-0.103,0.319-0.222,0.637-0.356,0.949c-0.289,0.674-0.659,1.326-1.105,1.934c-0.756,1.038-1.675,1.928-2.713,2.691
	c-1.127,0.838-2.379,1.512-3.669,2.047c-1.497,0.622-3.069,1.067-4.67,1.363c-1.69,0.304-3.409,0.444-5.129,0.43
	c-1.965-0.015-3.936-0.216-5.841-0.652c-1.772-0.409-3.499-1.024-5.122-1.876c-1.194-0.622-2.327-1.386-3.313-2.312
	c-0.897-0.838-1.676-1.802-2.268-2.92c-0.23-0.43-0.43-0.89-0.593-1.364c-0.037-0.096-0.067-0.193-0.096-0.289l-6.62,2.483v20.08
	H236.242L236.242,251.274z M215.45,232.15l-0.037,0.008l-0.111,0.014c-0.994,0.141-2.039,0.223-3.121,0.223
	c-3.447,0-6.552-0.778-8.783-2.031c-0.533-0.297-1.008-0.623-1.423-0.964l-0.029-0.022c-0.549-0.46-1.038-1.016-1.386-1.624
	c-0.067-0.118-0.126-0.237-0.178-0.356c3.943,0.979,7.886,1.467,11.83,1.467c3.928,0,7.857-0.488,11.793-1.467
	c-0.081,0.186-0.185,0.371-0.297,0.556c-0.414,0.652-1.008,1.238-1.667,1.719l-0.03,0.023l-0.037,0.029l-0.008,0.008l-0.029,0.015
	c-0.297,0.215-0.623,0.423-0.964,0.615c-1.497,0.837-3.38,1.467-5.5,1.786L215.45,232.15L215.45,232.15z"></path>
<path id="color_x5F_2" fill-rule="evenodd" clip-rule="evenodd" fill="#ffffff" d="M304.976,440.05v41.642
	c0,2.039-0.823,3.884-2.157,5.219s-3.179,2.157-5.218,2.157H111.434c-2.039,0-3.884-0.823-5.219-2.157
	c-1.334-1.334-2.156-3.18-2.156-5.219V440.05L304.976,440.05L304.976,440.05z M215.71,454.444c2.869,2.869,4.639,6.827,4.639,11.192
	c0,4.374-1.771,8.332-4.639,11.2c-2.862,2.861-6.82,4.632-11.192,4.632c-4.374,0-8.332-1.772-11.192-4.632
	c-2.869-2.869-4.64-6.827-4.64-11.2c0-4.366,1.772-8.324,4.64-11.192c2.861-2.862,6.819-4.64,11.192-4.64
	C208.89,449.804,212.849,451.583,215.71,454.444z M138.726,201.886v119.323c0,1.06,0.215,2.105,0.615,3.076
	c0.401,0.971,0.986,1.861,1.742,2.609v0.008c0.748,0.748,1.638,1.334,2.616,1.742c0.964,0.401,2.01,0.615,3.069,0.615h130.827
	c1.06,0,2.104-0.216,3.076-0.615c0.971-0.408,1.868-0.994,2.616-1.742c0.749-0.756,1.334-1.646,1.742-2.617
	c0.401-0.971,0.615-2.017,0.615-3.076v-79.556c3.64,3.728,7.427,5.975,8.709,6.686c0.467,2.927,3.172,18.123,10.622,31.302v47.95
	l-0.882,1.326l-43.029,17.642H158.353c-2.594,0-5.144,0.518-7.508,1.497c-2.365,0.979-4.536,2.416-6.367,4.255
	c-0.023,0.015-0.037,0.037-0.06,0.059c-1.808,1.824-3.231,3.973-4.195,6.315c-0.979,2.357-1.497,4.907-1.497,7.501v0.008
	c0,2.594,0.518,5.144,1.497,7.508c0.978,2.365,2.416,4.536,4.255,6.367c1.831,1.839,4.002,3.277,6.367,4.255
	c2.364,0.979,4.914,1.497,7.508,1.497h107.664c2.594,0,5.144-0.518,7.508-1.497c2.365-0.978,4.53-2.416,6.367-4.255
	c1.839-1.831,3.276-4.002,4.255-6.367c0.979-2.364,1.497-4.914,1.497-7.508v-0.008c0-1.972-0.304-3.92-0.875-5.781
	c-0.436-1.408-1.03-2.765-1.764-4.04l21.97-4.691v86.389H104.059V201.886L138.726,201.886L138.726,201.886z M268.278,411.023
	c0.548,0,0.994-0.444,0.994-0.993c0-0.548-0.445-0.993-0.994-0.993H156.093c-0.548,0-0.994,0.444-0.994,0.993
	c0,0.548,0.445,0.993,0.994,0.993H268.278z M255.247,398.422c0.548,0,0.993-0.444,0.993-0.993c0-0.548-0.444-0.994-0.993-0.994
	h-86.124c-0.548,0-0.993,0.445-0.993,0.994c0,0.548,0.444,0.993,0.993,0.993H255.247z M285.645,221.788v13.675
	c2.891-4.403,9.191-12.437,19.332-17.641v-3.581c-1.09-1.274-2.024-2.653-2.788-4.113c-0.518-0.986-0.956-2.017-1.304-3.069
	c-1.259,3.802-3.647,7.197-6.834,9.91C291.656,219.001,288.803,220.646,285.645,221.788z M297.601,105.489
	c2.039,0,3.883,0.823,5.218,2.157c1.334,1.333,2.157,3.179,2.157,5.211v41.1H104.059v-41.1c0-2.032,0.822-3.877,2.156-5.211
	c1.334-1.334,3.18-2.157,5.219-2.157C111.434,105.489,297.601,105.489,297.601,105.489z M173.816,132.292h-7.871
	c-0.556,0-1.001,0.444-1.001,0.994c0,0.548,0.444,0.993,1.001,0.993h7.871c0.556,0,1.001-0.444,1.001-0.993
	C174.817,132.736,174.372,132.292,173.816,132.292z M229.489,132.292h-49.944c-0.549,0-1.001,0.444-1.001,0.994
	c0,0.548,0.451,0.993,1.001,0.993h49.944c0.548,0,1.001-0.444,1.001-0.993C230.49,132.736,230.038,132.292,229.489,132.292z
	 M243.091,132.292h-7.879c-0.548,0-0.993,0.444-0.993,0.994c0,0.548,0.444,0.993,0.993,0.993h7.879c0.548,0,1.001-0.444,1.001-0.993
	C244.092,132.736,243.639,132.292,243.091,132.292L243.091,132.292z"></path>
<path id="color_x5F_1" fill="#0984E3" d="M296.488,249.028c0.779,4.426,3.581,18.004,10.333,29.827
	c0.007,0.023,0.022,0.045,0.029,0.067c0.379,0.66,0.771,1.319,1.179,1.972l0.03,0.045c1.038,1.601,2.557,2.743,4.27,3.328
	c1.734,0.593,3.662,0.607,5.477-0.045c1.297-0.466,2.765-1.164,4.425-2.149c1.483-0.889,3.113-2.016,4.907-3.439v-0.008h0.008
	v-0.007h0.015v-0.008h0.007v-0.007h0.007l0.008-0.007h0.007v-0.008h0.008v-0.007h0.014v-0.008l5.589-4.136
	c0.437-0.326,1.06-0.23,1.386,0.208c0.326,0.444,0.237,1.06-0.208,1.386l-4.714,3.491l5.174,5.323
	c1.341,1.378,3.098,2.156,4.9,2.297c1.808,0.141,3.662-0.349,5.203-1.504l0.008-0.008c0.822-0.615,1.504-1.378,2.016-2.245
	c0.511-0.868,0.853-1.831,0.994-2.847c0.141-1.016,0.074-2.039-0.178-3.017c-0.26-0.971-0.704-1.89-1.327-2.705l-3.898-5.093
	c-0.023-0.029-0.045-0.059-0.067-0.096l-2.017-2.632c-0.23-0.133-0.393-0.356-0.459-0.6l-3.09-4.032
	c-0.282-0.378-0.26-0.897,0.029-1.246l3.121-4.032c0.348-0.452,0.6-0.971,0.733-1.519c0.141-0.541,0.171-1.105,0.082-1.661v-0.022
	l-0.015-0.067c-0.163-0.941-0.6-1.786-1.238-2.446c-0.645-0.667-1.49-1.142-2.446-1.333c-0.03,0-0.052-0.008-0.082-0.015
	c-0.927-0.171-1.861-0.052-2.691,0.304c-0.852,0.371-1.601,0.993-2.112,1.824l-0.778,1.244c-0.245,0.394-0.719,0.556-1.142,0.423
	c-0.03-0.007-8.213-2.52-12.126-9.302C315.064,246.352,306.458,251.229,296.488,249.028L296.488,249.028z M183.541,355.624h10.244
	c1.593,0,3.038,0.645,4.084,1.698c1.045,1.045,1.69,2.49,1.69,4.084c0,1.601-0.645,3.038-1.69,4.091
	c-0.26,0.252-0.541,0.489-0.845,0.697c0.304,0.2,0.585,0.437,0.845,0.696c1.045,1.046,1.69,2.491,1.69,4.084
	c0,1.601-0.645,3.047-1.69,4.092c-1.046,1.045-2.491,1.69-4.084,1.69h-10.237h-0.007h-0.03h-0.022h-0.03l-0.022-0.007h-0.023
	l-0.029-0.008h-0.023l-0.022-0.007h-0.029l-0.023-0.008l-0.022-0.007l-0.022-0.008l-0.023-0.007l-0.022-0.007l-0.022-0.008
	l-0.03-0.015l-0.022-0.007l-0.015-0.007l-0.022-0.015l-0.022-0.008l-0.023-0.015l-0.022-0.007L183,376.6l-0.015-0.015l-0.022-0.015
	l-0.023-0.014l-0.014-0.015l-0.023-0.015l-0.014-0.015l-0.023-0.015l-0.015-0.015l-0.014-0.014l-0.015-0.023l-0.023-0.015
	l-0.014-0.014l-0.015-0.023l-0.015-0.014l-0.015-0.023l-0.015-0.022l-0.015-0.015l-0.007-0.022l-0.015-0.022l-0.015-0.015
	l-0.007-0.022l-0.015-0.023l-0.007-0.022l-0.015-0.022l-0.008-0.023l-0.007-0.022l-0.007-0.022l-0.008-0.022l-0.007-0.023
	l-0.008-0.022l-0.007-0.03l-0.008-0.022l-0.007-0.022v-0.022l-0.007-0.03v-0.022l-0.008-0.023v-0.029v-0.022v-0.03v-0.022v-9.569
	v-9.576C182.547,356.068,182.992,355.624,183.541,355.624L183.541,355.624z M193.785,367.187h-9.251v7.583h9.251
	c1.045,0,1.994-0.429,2.676-1.112c0.689-0.689,1.112-1.631,1.112-2.684c0-1.045-0.423-1.994-1.112-2.676
	C195.778,367.609,194.829,367.187,193.785,367.187z M193.785,365.193c1.045,0,1.994-0.423,2.676-1.105
	c0.689-0.689,1.112-1.638,1.112-2.683c0-1.046-0.423-1.995-1.112-2.684c-0.682-0.682-1.631-1.105-2.676-1.105h-9.251v7.576H193.785z
	 M231.847,366.535v9.229c0,0.548-0.452,0.993-1.001,0.993c-0.548,0-0.993-0.444-0.993-0.993v-9.229l-7.301-9.303
	c-0.342-0.429-0.26-1.052,0.17-1.393c0.43-0.341,1.053-0.267,1.393,0.171l6.731,8.576l3.128-3.987
	c-0.164-0.097-0.327-0.201-0.489-0.319c-0.519-0.379-0.956-0.868-1.275-1.416c-0.311-0.541-0.518-1.134-0.592-1.757
	c-0.008-0.037-0.015-0.081-0.015-0.126c-0.119-1.157,0.208-2.268,0.845-3.157c0.652-0.905,1.631-1.572,2.795-1.816l16.447-3.455
	h-93.335c-2.342,0-4.639,0.459-6.753,1.341c-2.112,0.875-4.061,2.164-5.722,3.825c-0.015,0.015-0.029,0.029-0.052,0.044
	c-1.63,1.646-2.905,3.581-3.772,5.671c-0.875,2.119-1.341,4.41-1.341,6.752v0.008c0,2.342,0.466,4.632,1.341,6.753
	c0.875,2.112,2.171,4.061,3.824,5.714c1.661,1.661,3.61,2.95,5.722,3.832c2.113,0.875,4.411,1.334,6.753,1.334h107.664
	c2.342,0,4.632-0.459,6.752-1.334c2.113-0.882,4.062-2.171,5.715-3.832c1.661-1.653,2.95-3.602,3.825-5.714
	c0.882-2.12,1.341-4.411,1.341-6.753v-0.008c0-1.779-0.267-3.536-0.778-5.196c-0.452-1.467-1.098-2.876-1.92-4.188l-8.124,1.742
	c-0.637,0.134-1.224,0.408-1.735,0.786c-0.511,0.378-0.941,0.867-1.252,1.437l-3.165,5.804c-0.563,1.038-1.393,1.876-2.364,2.454
	c-0.986,0.585-2.112,0.904-3.291,0.904h-6.493c-1.423,0-2.765-0.466-3.854-1.282c-1.09-0.808-1.92-1.964-2.328-3.335l-1.786-6.071
	l-9.421,1.853c-0.364,0.074-0.727,0.096-1.09,0.082L231.847,366.535L231.847,366.535z M202.442,356.618
	c0-0.549,0.444-0.994,0.993-0.994s0.994,0.444,0.994,0.994v11.629c0,1.802,0.733,3.432,1.912,4.61
	c1.179,1.179,2.81,1.913,4.61,1.913c1.802,0,3.432-0.734,4.61-1.913c1.179-1.179,1.906-2.809,1.906-4.61v-11.629
	c0-0.549,0.444-0.994,0.993-0.994c0.556,0,1.001,0.444,1.001,0.994v11.629c0,2.35-0.956,4.478-2.498,6.019
	c-1.534,1.542-3.662,2.491-6.012,2.491c-2.349,0-4.477-0.949-6.019-2.491c-1.541-1.541-2.49-3.669-2.49-6.019V356.618z
	 M229.622,228.711c-0.103,0.319-0.222,0.637-0.356,0.949c-0.289,0.674-0.659,1.326-1.105,1.934
	c-0.756,1.038-1.675,1.928-2.713,2.691c-1.127,0.838-2.379,1.512-3.669,2.047c-1.497,0.622-3.069,1.067-4.67,1.363
	c-1.69,0.304-3.409,0.444-5.129,0.43c-1.965-0.015-3.936-0.216-5.841-0.652c-1.772-0.409-3.499-1.024-5.122-1.876
	c-1.194-0.622-2.327-1.386-3.313-2.312c-0.897-0.838-1.676-1.802-2.268-2.92c-0.23-0.43-0.43-0.89-0.593-1.364
	c-0.037-0.096-0.067-0.193-0.096-0.289l-6.62,2.483v20.08h48.114v-20.08L229.622,228.711L229.622,228.711z M195.044,226.48
	c0.03-0.015,0.067-0.03,0.097-0.037l3.113-1.172l0.444-0.171c0.208-0.081,0.415-0.089,0.63-0.037l0.007,0.008h0.023l0.192,0.059
	c8.939,2.424,17.063,2.172,25.491-0.067h0.008l0.007-0.007h0.007c0.216-0.052,0.437-0.03,0.638,0.059l0.014,0.008l11.801,4.433
	c0.015,0,0.03,0.007,0.045,0.014h0.014l0.008,0.008h0.015l0.007,0.007h0.008c0.014,0.008,0.029,0.015,0.037,0.023h0.007l0.015,0.007
	h0.007l0.008,0.007l0.015,0.008l0.007,0.007h0.015l0.015,0.015l0.015,0.008h0.007l0.007,0.007h0.008l0.022,0.022h0.007l0.03,0.03
	l0.03,0.015v0.007h0.007l0.008,0.008v0.007l0.015,0.007l0.029,0.03l23.86,21.029l1.297,1.149c0.23,0.201,0.341,0.474,0.341,0.756
	c0,0.231-0.074,0.43-0.215,0.608l-13.082,18.968c-0.193,0.275-0.474,0.422-0.801,0.429c-0.2,0.008-0.401-0.052-0.578-0.178
	c-0.022-0.007-0.037-0.022-0.059-0.037l-0.519-0.423l-2.942-2.379l-0.03-0.022l-6.96-5.626v39.878c0,1.304-0.533,2.491-1.393,3.351
	c-0.86,0.859-2.047,1.393-3.351,1.393h-42.612c-1.312,0-2.498-0.526-3.351-1.386v-0.007c-0.86-0.86-1.393-2.047-1.393-3.351v-39.878
	l-10.451,8.45c-0.466,0.342-1.082,0.29-1.438-0.215l-13.082-18.968l-0.015-0.015c-0.312-0.422-0.252-0.978,0.119-1.326v-0.008
	l0.015-0.015l0.696-0.607l24.46-21.57c0.119-0.111,0.253-0.193,0.408-0.237L195.044,226.48L195.044,226.48z M227.444,228.874
	c0.118-0.282,0.222-0.571,0.311-0.867l-1.267-0.474l-0.378-0.141c-0.43,1.608-1.616,3.046-3.336,4.195
	c-1.008,0.682-2.097,1.209-3.231,1.608c-1.165,0.415-2.372,0.697-3.581,0.89h-0.007h-0.008l-0.059,0.007
	c-0.437,0.075-0.882,0.134-1.341,0.179h-0.06l-0.059,0.007c-0.904,0.089-1.816,0.119-2.728,0.104
	c-0.652-0.015-1.297-0.052-1.942-0.119h-0.008l-0.015-0.007h-0.059l-0.022-0.008c-0.905-0.096-1.772-0.237-2.61-0.429l-0.059-0.008
	l-0.007-0.007c-0.957-0.215-1.898-0.496-2.81-0.867c-1.194-0.474-2.32-1.098-3.321-1.891c-0.052-0.037-0.096-0.081-0.148-0.118
	c-1.239-1.024-2.09-2.224-2.446-3.536l-1.646,0.622c0.03,0.111,0.067,0.23,0.104,0.341c0.134,0.371,0.29,0.734,0.474,1.083
	c0.481,0.904,1.127,1.697,1.876,2.394c0.852,0.793,1.838,1.46,2.876,2.009c1.468,0.771,3.031,1.319,4.647,1.698
	c1.772,0.4,3.596,0.592,5.403,0.607c1.594,0.008,3.195-0.119,4.759-0.401c1.467-0.274,2.897-0.681,4.277-1.252
	c1.149-0.474,2.26-1.075,3.246-1.801c0.875-0.645,1.653-1.393,2.283-2.261h0.007C226.903,229.956,227.199,229.43,227.444,228.874
	L227.444,228.874z M200.382,227.399c0.052,0.119,0.111,0.238,0.178,0.356c0.349,0.608,0.837,1.164,1.386,1.624l0.029,0.022
	c0.415,0.341,0.89,0.667,1.423,0.964c2.231,1.252,5.337,2.031,8.783,2.031c1.083,0,2.127-0.082,3.121-0.223l0.111-0.014l0.037-0.008
	h0.022c2.12-0.319,4.003-0.949,5.5-1.786c0.341-0.193,0.667-0.401,0.964-0.615l0.029-0.015l0.008-0.008l0.037-0.029l0.03-0.023
	c0.659-0.481,1.252-1.067,1.667-1.719c0.112-0.186,0.216-0.371,0.297-0.556c-3.936,0.979-7.864,1.467-11.793,1.467
	C208.268,228.866,204.325,228.378,200.382,227.399L200.382,227.399z M245.633,267.492l12.037-17.642l-19.434-17.137v28.797
	L245.633,267.492L245.633,267.492z M260.369,252.23l-1.202-1.06l-11.986,17.575l1.92,1.549l12.008-17.412L260.369,252.23z
	 M165.202,251.17l-1.853,1.638l-0.089,0.074l12.008,17.412l1.92-1.549L165.202,251.17L165.202,251.17z M166.7,249.851l12.037,17.642
	l7.397-5.982v-28.797L166.7,249.851L166.7,249.851z M237.614,229.585c0.014,0.008,0.029,0.015,0.037,0.023L237.614,229.585z
	 M188.128,265.868h48.114v-3.883v-8.717h-48.114V265.868z M236.242,267.855h-48.114v36.09c0,0.764,0.305,1.453,0.801,1.95
	c0.503,0.496,1.194,0.808,1.95,0.808h42.612c0.764,0,1.445-0.312,1.943-0.801c0.503-0.503,0.808-1.193,0.808-1.957L236.242,267.855
	L236.242,267.855z M57.658,489.067c0.548,0,0.993,0.444,0.993,1c0,0.549-0.444,0.994-0.993,0.994H46.717
	c-0.548,0-0.993-0.444-0.993-0.994c0-0.555,0.444-1,0.993-1H57.658z M547.839,489.067c0.548,0,0.993,0.444,0.993,1
	c0,0.549-0.444,0.994-0.993,0.994h-10.941c-0.548,0-0.994-0.444-0.994-0.994c0-0.555,0.445-1,0.994-1H547.839z M68.591,491.061
	c-0.548,0-0.993-0.444-0.993-0.994c0-0.555,0.444-1,0.993-1h22.237c-0.297-0.23-0.586-0.482-0.853-0.749l-0.007-0.007
	c-0.875-0.875-1.557-1.913-2.024-3.039c-0.467-1.127-0.719-2.342-0.719-3.581V112.857c0-1.231,0.252-2.446,0.719-3.581
	c0.466-1.119,1.149-2.156,2.024-3.031l0.007-0.007c0.875-0.875,1.913-1.564,3.039-2.024c1.127-0.474,2.342-0.719,3.58-0.719h201.007
	c2.587,0,4.929,1.052,6.619,2.743c1.697,1.697,2.75,4.039,2.75,6.619v41.679l45.638,45.645c0.037,0.037,0.074,0.074,0.104,0.119
	l0.014,0.022l0.015,0.015v0.008l0.015,0.022l0.015,0.015v0.007c0.007,0.015,0.022,0.037,0.03,0.059
	c0.066,0.134,0.103,0.282,0.103,0.445c0,5.744-2.497,10.985-6.619,14.98c-3.809,3.692-9.013,6.315-14.898,7.279l0.007,0.022
	c2.869-0.156,13.513,0.23,14.735,14.224c1.187,13.469-3.261,25.676-4.388,28.516l1.43,1.868c2.758-1.579,12.505-7.13,18.968-10.659
	c0.571-0.459,1.179-0.874,1.817-1.231c1.541-0.874,3.253-1.437,5.033-1.645c0.044-0.008,0.089-0.008,0.133-0.015
	c3.44-0.356,6.731,0.637,9.318,2.572c2.601,1.95,4.492,4.848,5.099,8.28l1.535,8.68l49.246,58.068l0.023,0.037
	c0.022,0.022,0.037,0.045,0.052,0.067l2.327,3.187c2.861,3.928,4.373,8.532,4.5,13.179c0.133,4.64-1.113,9.325-3.758,13.409
	l-25.121,38.811c-0.585,0.904-0.949,1.912-1.082,2.957c-0.134,1.038-0.03,2.104,0.304,3.135l18.286,55.421
	c0.045,0.104,0.067,0.223,0.067,0.349v0.03l1.075,22.296c0.037,0.823-0.096,1.638-0.378,2.401c-0.267,0.719-0.667,1.386-1.187,1.958
	h22.852c-0.23-0.238-0.459-0.482-0.697-0.734c-0.8-0.86-1.563-1.72-2.282-2.572c-5.375-6.404-9.184-13.498-11.415-20.317
	c-2.409-7.353-2.987-14.41-1.705-19.961c0.104-0.452,0.511-0.764,0.956-0.771c5.152-0.267,11.252,1.186,17.419,4.166
	c5.219,2.527,10.503,6.167,15.314,10.799c0.415-7.531,2.061-14.609,4.514-20.724c3.076-7.687,7.457-13.861,12.327-17.523
	c0.371-0.275,0.867-0.26,1.216,0.022c4.855,3.662,9.228,9.829,12.304,17.501c2.387,5.944,4.002,12.809,4.47,20.109
	c4.766-4.462,9.962-7.96,15.084-10.376c6.034-2.862,11.993-4.24,17.033-3.973c0.459,0.022,0.823,0.349,0.919,0.771
	c1.29,5.551,0.712,12.608-1.697,19.961c-2.231,6.82-6.049,13.913-11.415,20.317c-0.719,0.852-1.482,1.712-2.29,2.572
	c-0.23,0.252-0.466,0.496-0.696,0.734h9.273c0.548,0,0.993,0.444,0.993,1c0,0.549-0.444,0.994-0.993,0.994h-32.667h-10.941H476.37
	h-21.689h-157.08H112.858h-1.423h-14.84L68.591,491.061L68.591,491.061z M303.375,489.067h22.799
	c-0.978-1.075-1.571-2.506-1.571-4.07v-0.867c0-0.964,0.238-1.913,0.667-2.758c0.437-0.845,1.068-1.586,1.853-2.156l23.994-17.293
	l-5.5-46.245c-0.423-3.558-0.185-7.13,0.667-10.555c0.853-3.425,2.32-6.693,4.366-9.636l27.419-39.492l-35.009-47.298
	l-13.001,25.246c-0.245,0.474-0.585,0.882-0.993,1.209c-0.415,0.326-0.89,0.57-1.401,0.704c-0.511,0.133-1.038,0.155-1.541,0.074
	l-3.862,7.338c-0.889,1.682-2.127,3.128-3.61,4.247c-1.482,1.127-3.209,1.928-5.07,2.32l-6.612,1.416v130.44
	c0,2.588-1.053,4.93-2.75,6.627C303.953,488.585,303.672,488.838,303.375,489.067L303.375,489.067z M377.401,489.067h4.921
	c-0.466-0.511-0.845-1.113-1.112-1.757c-0.304-0.726-0.459-1.512-0.459-2.313v-1.082c0-0.89,0.2-1.772,0.578-2.572
	c0.371-0.801,0.919-1.52,1.616-2.09l20.665-17.144l-25.246-54.532c-0.334-0.712-0.525-1.468-0.6-2.224l-3.928,4.781l4.069,52.123
	c0,0.045,0.008,0.082,0.008,0.126v0.03l1.053,22.296c0.037,0.83-0.097,1.645-0.379,2.409
	C378.32,487.829,377.92,488.496,377.401,489.067L377.401,489.067z M474.843,489.067c-3.543-8.369-5.211-17.605-5.07-26.692
	c-4.988-5.093-10.577-9.043-16.085-11.704c-5.574-2.706-11.059-4.084-15.729-4.003c-0.993,5.093-0.378,11.474,1.809,18.16
	c2.164,6.59,5.848,13.454,11.052,19.657c0.749,0.89,1.482,1.72,2.209,2.498c0.659,0.697,1.341,1.393,2.052,2.083h17.159
	L448.5,460.775c-0.349-0.415-0.297-1.046,0.126-1.393c0.422-0.357,1.046-0.297,1.401,0.118l24.809,29.568L474.843,489.067
	L474.843,489.067z M504.818,461.701c0.015,0.541,0.022,1.083,0.022,1.624v0.081l0.007,0.015v0.03c0,8.109-1.46,16.448-4.44,24.038
	l23.49-27.989c0.349-0.414,0.979-0.474,1.401-0.118c0.414,0.348,0.474,0.978,0.118,1.393l-23.741,28.293h17.167
	c0.704-0.69,1.393-1.386,2.045-2.09c0.726-0.771,1.46-1.601,2.209-2.491c5.203-6.203,8.894-13.067,11.052-19.657
	c2.193-6.686,2.802-13.067,1.808-18.16c-4.559-0.081-9.888,1.23-15.328,3.81C515.24,453.029,509.754,456.808,504.818,461.701
	L504.818,461.701z M477.007,489.067h9.303v-46.661c0-0.548,0.444-1.001,0.993-1.001c0.549,0,0.994,0.452,0.994,1.001v46.661h9.302
	c3.544-7.968,5.256-16.952,5.256-25.617v-0.022v-0.023c-0.007-8.664-1.705-16.833-4.47-23.719
	c-2.817-7.026-6.738-12.712-11.082-16.202c-4.343,3.491-8.257,9.176-11.081,16.202C470.054,455.053,470.24,473.776,477.007,489.067
	L477.007,489.067z M140.713,201.886v119.323c0,0.808,0.163,1.601,0.459,2.32c0.304,0.726,0.748,1.393,1.311,1.965h0.008
	c0.57,0.57,1.237,1.015,1.957,1.311c0.726,0.305,1.512,0.459,2.32,0.459h130.827c0.808,0,1.601-0.155,2.32-0.459
	c0.726-0.297,1.393-0.741,1.964-1.311c0.571-0.571,1.016-1.238,1.312-1.965c0.304-0.719,0.459-1.512,0.459-2.32v-98.791
	c-2.602,0.734-5.388,1.134-8.287,1.134c-7.286,0-13.89-2.52-18.679-6.582c-3.194-2.713-5.581-6.108-6.834-9.91
	c-1.252,3.802-3.64,7.197-6.834,9.91c-4.788,4.07-11.393,6.582-18.679,6.582c-7.286,0-13.898-2.512-18.686-6.582
	c-3.187-2.713-5.574-6.108-6.827-9.91c-1.259,3.802-3.647,7.197-6.834,9.91c-4.788,4.062-11.4,6.582-18.686,6.582
	c-7.286,0-13.891-2.52-18.679-6.582c-4.58-3.891-7.508-9.191-7.805-15.084H140.713L140.713,201.886z M284.288,220.15
	c0.03-0.015,0.067-0.022,0.097-0.03c3.172-1.06,6.019-2.661,8.383-4.669c4.136-3.514,6.79-8.279,7.093-13.565h-48.988
	c0.297,5.286,2.95,10.051,7.093,13.565c4.441,3.772,10.592,6.108,17.397,6.108C278.514,221.558,281.523,221.062,284.288,220.15
	L284.288,220.15z M285.644,221.788v13.675c2.891-4.403,9.191-12.437,19.332-17.641v-3.581c-1.09-1.274-2.024-2.653-2.788-4.113
	c-0.518-0.986-0.956-2.017-1.304-3.069c-1.259,3.802-3.647,7.197-6.834,9.91C291.656,219.001,288.803,220.646,285.644,221.788z
	 M285.644,241.653v79.556c0,1.06-0.215,2.105-0.615,3.076c-0.408,0.971-0.993,1.861-1.742,2.617
	c-0.748,0.748-1.645,1.334-2.616,1.742c-0.972,0.401-2.017,0.615-3.076,0.615H146.768c-1.06,0-2.105-0.215-3.069-0.615
	c-0.978-0.408-1.868-0.994-2.616-1.742v-0.008c-0.756-0.748-1.341-1.638-1.742-2.609c-0.401-0.971-0.615-2.017-0.615-3.076V201.886
	h-34.667v236.177h200.917v-86.39l-21.97,4.691c0.734,1.275,1.327,2.632,1.764,4.04c0.571,1.861,0.875,3.809,0.875,5.781v0.008
	c0,2.594-0.518,5.144-1.497,7.508c-0.979,2.365-2.416,4.536-4.255,6.367c-1.838,1.839-4.002,3.277-6.367,4.255
	c-2.364,0.979-4.914,1.497-7.508,1.497H158.353c-2.594,0-5.144-0.518-7.508-1.497c-2.365-0.978-4.536-2.416-6.367-4.255
	c-1.839-1.831-3.277-4.002-4.255-6.367c-0.979-2.364-1.497-4.914-1.497-7.508v-0.008c0-2.594,0.518-5.144,1.497-7.501
	c0.964-2.342,2.387-4.492,4.195-6.315c0.023-0.022,0.037-0.044,0.06-0.059c1.831-1.839,4.002-3.276,6.367-4.255
	c2.364-0.979,4.914-1.497,7.508-1.497h102.712l43.029-17.642l0.882-1.326v-47.95c-7.45-13.179-10.155-28.375-10.622-31.302
	C293.071,247.627,289.284,245.381,285.644,241.653z M261.703,348.442c-0.104,0.052-0.208,0.089-0.327,0.104l-25.728,5.403
	c-0.667,0.141-1.224,0.518-1.586,1.038c-0.371,0.511-0.556,1.157-0.482,1.831v0.015c0.045,0.371,0.164,0.719,0.349,1.03
	c0.178,0.319,0.43,0.6,0.734,0.816c0.304,0.222,0.645,0.378,0.993,0.459c0.357,0.074,0.734,0.081,1.105,0.007l10.304-2.024
	c0.526-0.104,1.038,0.23,1.156,0.741l2.032,6.887c0.282,0.949,0.86,1.742,1.608,2.305c0.756,0.563,1.683,0.889,2.669,0.889h6.493
	c0.815,0,1.601-0.222,2.275-0.622c0.682-0.407,1.252-0.986,1.638-1.698l3.165-5.804c0.452-0.83,1.075-1.534,1.801-2.082
	c0.734-0.548,1.594-0.941,2.513-1.142l33.296-7.108c0.038-0.007,0.075-0.015,0.112-0.022l7.353-1.571
	c1.571-0.334,3.024-1.009,4.277-1.957c1.252-0.949,2.297-2.172,3.053-3.596l3.795-7.219l-15.225-10.103l-2.231,3.358
	c-0.03,0.044-0.059,0.089-0.089,0.126l-1.179,1.771c-0.119,0.171-0.282,0.297-0.459,0.371L261.703,348.442L261.703,348.442z
	 M309.667,217.874c-0.022,0.007-0.044,0.022-0.074,0.029c-0.267,0.104-0.541,0.208-0.815,0.327
	c-0.786,0.334-1.549,0.689-2.298,1.053c-0.044,0.03-0.096,0.052-0.148,0.074c-12.497,6.226-19.042,16.989-20.487,19.59
	c4.232,4.84,9.109,7.472,9.784,7.821c11.622,3.32,21.621-4.225,21.969-4.493c0.052-0.044,0.119-0.081,0.178-0.118
	c0.496-0.238,1.09-0.03,1.327,0.466c2.683,5.559,8.686,8.258,10.755,9.043l0.356-0.57c0.734-1.172,1.794-2.061,3.017-2.587
	c1.186-0.519,2.527-0.682,3.854-0.437c0.029,0.007,0.059,0.007,0.089,0.015c1.363,0.274,2.564,0.956,3.491,1.912
	c0.904,0.935,1.534,2.142,1.764,3.484l0.015,0.06v0.015c0.134,0.837,0.097,1.69-0.111,2.49c-0.201,0.808-0.571,1.579-1.09,2.253
	l-2.676,3.462l1.749,2.29c1.482-4.025,4.863-14.758,3.832-26.484c-1.238-14.083-13.172-12.371-13.209-12.371
	c-0.422,0.059-0.845-0.163-1.03-0.57c0-0.008-0.29-0.653-0.897-1.579c-0.074-0.074-0.134-0.163-0.178-0.253
	C326.62,219.571,320.771,213.613,309.667,217.874L309.667,217.874z M307.377,216.681c-0.141-0.126-0.274-0.252-0.408-0.371v0.555
	C307.104,216.8,307.244,216.74,307.377,216.681z M330.215,221.313c5.834-0.771,10.978-3.269,14.684-6.864
	c3.506-3.395,5.722-7.768,5.989-12.564h-48.981c0.141,2.602,0.86,5.07,2.039,7.331c0.734,1.4,1.646,2.728,2.721,3.943
	c0.037,0.037,0.067,0.082,0.104,0.119c0.808,0.911,1.712,1.771,2.691,2.557C321.12,211.581,327.546,217.622,330.215,221.313
	L330.215,221.313z M241.735,215.45c4.143-3.514,6.797-8.279,7.093-13.565h-48.981c0.297,5.286,2.95,10.051,7.086,13.565
	c4.448,3.772,10.599,6.108,17.404,6.108C231.142,221.558,237.294,219.223,241.735,215.45L241.735,215.45z M190.708,215.45
	c4.136-3.514,6.79-8.279,7.093-13.565h-48.988c0.297,5.286,2.95,10.051,7.093,13.565c4.441,3.772,10.592,6.108,17.397,6.108
	C180.109,221.558,186.261,219.223,190.708,215.45L190.708,215.45z M105.467,155.944l43.947,43.948h47.913l-43.947-43.948H105.467z
	 M146.598,199.892l-42.539-42.54v42.54H146.598z M156.189,155.944l43.955,43.948h47.913l-43.955-43.948H156.189L156.189,155.944z
	 M206.919,155.944l43.948,43.948h47.913l-43.948-43.948H206.919z M257.648,155.944l43.948,43.948h47.913l-43.948-43.948H257.648z
	 M165.944,134.279c-0.556,0-1.001-0.444-1.001-0.993c0-0.549,0.444-0.994,1.001-0.994h7.871c0.556,0,1.001,0.444,1.001,0.994
	c0,0.548-0.444,0.993-1.001,0.993H165.944z M235.211,134.279c-0.548,0-0.993-0.444-0.993-0.993c0-0.549,0.444-0.994,0.993-0.994
	h7.879c0.548,0,1.001,0.444,1.001,0.994c0,0.548-0.452,0.993-1.001,0.993H235.211L235.211,134.279z M156.093,411.023
	c-0.548,0-0.994-0.444-0.994-0.993c0-0.548,0.445-0.993,0.994-0.993h112.184c0.548,0,0.994,0.444,0.994,0.993
	c0,0.548-0.445,0.993-0.994,0.993H156.093z M169.123,398.422c-0.548,0-0.993-0.444-0.993-0.993c0-0.548,0.444-0.994,0.993-0.994
	h86.124c0.548,0,0.993,0.445,0.993,0.994c0,0.548-0.444,0.993-0.993,0.993H169.123z M179.546,134.279
	c-0.549,0-1.001-0.444-1.001-0.993c0-0.549,0.451-0.994,1.001-0.994h49.944c0.548,0,1.001,0.444,1.001,0.994
	c0,0.548-0.452,0.993-1.001,0.993H179.546z M218.356,465.637c0-3.817-1.549-7.279-4.054-9.784c-2.498-2.505-5.96-4.054-9.784-4.054
	c-3.825,0-7.286,1.549-9.792,4.054c-2.505,2.505-4.054,5.967-4.054,9.784c0,3.824,1.549,7.286,4.054,9.792
	c2.506,2.505,5.967,4.054,9.792,4.054c3.824,0,7.286-1.549,9.784-4.054C216.807,472.923,218.356,469.461,218.356,465.637z
	 M215.71,454.444c2.869,2.869,4.639,6.827,4.639,11.192c0,4.374-1.771,8.332-4.639,11.2c-2.862,2.861-6.82,4.632-11.192,4.632
	c-4.374,0-8.332-1.772-11.192-4.632c-2.869-2.869-4.64-6.827-4.64-11.2c0-4.366,1.772-8.324,4.64-11.192
	c2.861-2.862,6.819-4.64,11.192-4.64C208.89,449.804,212.848,451.583,215.71,454.444z M102.064,439.064v-0.007v-0.008V200.893
	v-45.934v-0.007v-0.008v-42.086c0-2.58,1.053-4.922,2.743-6.619c0.275-0.268,0.556-0.519,0.853-0.749h-9.066
	c-0.986,0-1.949,0.193-2.831,0.556c-0.883,0.363-1.698,0.904-2.387,1.593v0.008c-0.697,0.689-1.231,1.504-1.601,2.386
	c-0.364,0.882-0.556,1.846-0.556,2.825v368.834c0,0.987,0.193,1.95,0.556,2.832c0.371,0.883,0.904,1.698,1.601,2.387
	c0.689,0.697,1.504,1.23,2.387,1.601c0.882,0.364,1.845,0.556,2.831,0.556h9.066c-0.297-0.23-0.578-0.482-0.853-0.749
	c-1.69-1.697-2.743-4.039-2.743-6.627V439.064z M304.976,440.05H104.059v41.642c0,2.039,0.822,3.884,2.156,5.219
	c1.334,1.334,3.18,2.157,5.219,2.157h186.167c2.038,0,3.883-0.823,5.218-2.157s2.157-3.18,2.157-5.219V440.05z M104.059,153.958
	h200.917v-41.1c0-2.032-0.823-3.877-2.157-5.211c-1.334-1.334-3.18-2.157-5.218-2.157H111.434c-2.039,0-3.884,0.823-5.219,2.157
	c-1.334,1.333-2.156,3.179-2.156,5.211C104.059,112.858,104.059,153.958,104.059,153.958z M306.97,282.813v32.859l17.819-32.874
	c-0.526,0.357-1.046,0.675-1.542,0.972c-1.764,1.06-3.358,1.808-4.773,2.312c-2.253,0.815-4.64,0.793-6.783,0.067
	C309.868,285.526,308.215,284.385,306.97,282.813L306.97,282.813z M306.97,320.231v0.126c0,0.126,0.015,0.245,0.045,0.363
	c0.103,0.415,0.356,0.794,0.741,1.046l17.989,11.934c0.208,0.141,0.444,0.23,0.682,0.267c0.245,0.045,0.496,0.037,0.741-0.029
	c0.245-0.06,0.466-0.179,0.659-0.327c0.186-0.156,0.349-0.349,0.467-0.578l13.735-26.662c0.252-0.489,0.845-0.682,1.333-0.429
	c0.156,0.081,0.275,0.192,0.364,0.326l33.904,45.801l-5.641-33.763l-5.96,0.778c-0.533,0.067-1.023-0.296-1.104-0.83l-7.598-48.676
	c-0.282-1.801-0.193-3.625,0.245-5.345c0.26-1.023,0.637-2.009,1.134-2.949c-5.566,3.105-11.919,6.723-14.321,8.094l3.247,4.232
	c0.778,1.023,1.341,2.186,1.668,3.41c0.319,1.223,0.407,2.513,0.23,3.787c-0.178,1.282-0.608,2.498-1.252,3.588
	c-0.645,1.09-1.497,2.054-2.528,2.824l-0.022,0.015c-1.943,1.453-4.277,2.069-6.545,1.891c-2.268-0.178-4.47-1.157-6.168-2.899
	l-5.025-5.159l-20.814,38.388C307.044,319.696,306.977,319.963,306.97,320.231L306.97,320.231z M306.97,323.626v0.986l0.452-0.69
	L306.97,323.626z M380.544,402.003c-0.422,0.637-0.689,1.356-0.785,2.097c-0.112,0.882,0.022,1.801,0.408,2.646l25.297,54.644
	h22.081l-17.87-54.161c-0.43-1.297-0.548-2.669-0.379-4.003c0.171-1.334,0.637-2.631,1.386-3.78l25.121-38.818
	c2.416-3.735,3.558-8.019,3.439-12.274c-0.119-4.255-1.497-8.473-4.121-12.06l-1.764-2.416c-6.293,4.825-12.646,9.102-19.087,12.683
	c-6.456,3.595-13.001,6.478-19.642,8.502l2.416,18.16l0.015,0.022c1.378,2.535,1.883,5.359,1.571,8.087
	c-0.319,2.728-1.467,5.367-3.387,7.516l-2.913,3.254v2.75c0,0.942-0.193,1.868-0.548,2.736c-0.364,0.867-0.882,1.66-1.549,2.327
	c-0.667,0.667-1.46,1.186-2.327,1.549c-0.868,0.356-1.794,0.541-2.736,0.541L380.544,402.003L380.544,402.003z M427.975,463.377
	h-22.793c-2.245,1.868-17.433,14.475-20.969,17.411c-0.474,0.385-0.838,0.867-1.09,1.393c-0.252,0.534-0.386,1.127-0.386,1.735
	v1.082c0,0.549,0.111,1.075,0.312,1.564c0.2,0.482,0.496,0.927,0.882,1.312c0.386,0.385,0.837,0.689,1.319,0.889
	c0.481,0.201,1.015,0.305,1.564,0.305h38.121c0.563,0,1.105-0.112,1.608-0.327c0.497-0.215,0.957-0.526,1.342-0.934
	c0.386-0.401,0.681-0.875,0.867-1.386c0.193-0.511,0.282-1.06,0.252-1.623L427.975,463.377L427.975,463.377z M373.962,318.051
	l9.503,56.926c0.045,0.245-0.007,0.474-0.126,0.667l-5.715,9.628c-0.919,1.549-1.623,3.209-2.097,4.929
	c-0.466,1.712-0.711,3.499-0.711,5.315c0,0.6,0.118,1.187,0.341,1.727c0.223,0.534,0.548,1.031,0.979,1.453
	c0.422,0.429,0.919,0.756,1.452,0.978c0.541,0.223,1.127,0.342,1.727,0.342h5.856c0.689,0,1.364-0.134,1.98-0.393
	c0.615-0.253,1.186-0.63,1.675-1.12c0.489-0.489,0.867-1.06,1.119-1.675c0.26-0.615,0.394-1.29,0.394-1.98v-3.127
	c0-0.283,0.118-0.541,0.311-0.719l3.121-3.484c1.638-1.831,2.609-4.077,2.884-6.412c0.274-2.32-0.156-4.721-1.312-6.871
	c-0.015-0.03-0.037-0.067-0.059-0.112c-0.037-0.051-0.052-0.081-0.067-0.111c-0.059-0.111-0.097-0.222-0.111-0.341l-2.55-19.183
	l-0.008-0.023l-5.077-38.18L373.962,318.051L373.962,318.051z M381.448,374.947l-2.736-16.403l-26.432,38.07
	c-1.905,2.75-3.276,5.796-4.069,8.983c-0.793,3.187-1.016,6.523-0.623,9.851l5.463,45.941h22.792l-4.025-51.501
	c-0.014-0.297,0.09-0.563,0.275-0.763l5.96-7.242c-0.415-0.089-0.823-0.208-1.216-0.371c-0.786-0.327-1.505-0.801-2.112-1.408
	c-0.601-0.608-1.083-1.319-1.401-2.105c-0.327-0.785-0.496-1.63-0.496-2.483c0-1.972,0.267-3.936,0.785-5.833
	c0.526-1.906,1.297-3.728,2.305-5.426L381.448,374.947L381.448,374.947z M372.657,316.221l0.03-0.008l15.499-2.024h0.022
	l1.964-0.252l-8.598-48.513c-0.511-2.913-2.12-5.382-4.329-7.034c-2.209-1.653-5.026-2.498-7.968-2.171h-0.015
	c-1.541,0.171-3.016,0.652-4.336,1.393c-0.556,0.319-1.083,0.674-1.579,1.083c-0.015,0.014-0.03,0.029-0.052,0.044
	c-0.667,0.548-1.274,1.172-1.809,1.876c-0.941,1.231-1.608,2.624-1.987,4.106c-0.378,1.475-0.451,3.024-0.215,4.558l7.45,47.713
	L372.657,316.221L372.657,316.221z M389.431,316.028l4.929,37.039c6.397-1.972,12.705-4.766,18.946-8.243
	c6.337-3.521,12.609-7.746,18.827-12.504l-46.371-54.673l6.545,36.964l0.007,0.045c0.067,0.541-0.311,1.038-0.852,1.112
	L389.431,316.028L389.431,316.028z M352.489,463.377l-24.209,17.448c-0.526,0.386-0.949,0.882-1.246,1.453
	c-0.282,0.563-0.436,1.194-0.436,1.853v0.867c0,1.127,0.451,2.142,1.186,2.877c0.741,0.741,1.757,1.194,2.884,1.194h42.242
	c0.563,0,1.105-0.112,1.609-0.327c0.496-0.215,0.956-0.526,1.341-0.927c0.386-0.408,0.682-0.882,0.867-1.393
	c0.193-0.503,0.282-1.06,0.253-1.616l-1.009-21.428H352.489L352.489,463.377z"></path>
</svg>